/* XPM */
static char *_8f4966ba16d4f0bbaad4fe8666e6f1f85iKPjEkkpClcS2k[] = {
/* columns rows colors chars-per-pixel */
"64 64 79 1 ",
"  c #5A6341",
". c #5B6442",
"X c #5B6443",
"o c #5C6543",
"O c #5D6643",
"+ c #5D6744",
"@ c #5D6845",
"# c #627449",
"$ c #62754A",
"% c #63764B",
"& c #667D49",
"* c #667E48",
"= c #667E49",
"- c #677E49",
"; c #687F4A",
": c #5F5D60",
"> c #605E61",
", c #615F62",
"< c #625F62",
"1 c #616063",
"2 c #626063",
"3 c #626164",
"4 c #636265",
"5 c #676767",
"6 c #686868",
"7 c DimGray",
"8 c #6A6A6A",
"9 c gray42",
"0 c #6C6C6C",
"q c #6D706D",
"w c #6E716E",
"e c #6F716F",
"r c #6E726E",
"t c #6F726F",
"y c #707270",
"u c #717371",
"i c #717472",
"p c #7A787B",
"a c #7B797C",
"s c #7C7A7D",
"d c #7D7B7E",
"f c #69804A",
"g c #758655",
"h c #768756",
"j c #778857",
"k c #778858",
"l c #788958",
"z c #798A58",
"x c #7C8F58",
"c c #7D9058",
"v c #7D9059",
"b c #7D9159",
"n c #7E9159",
"m c #7E925A",
"M c #7F8080",
"N c #808181",
"B c #818282",
"V c #828383",
"C c #838484",
"Z c #848484",
"A c #848686",
"S c #8A898A",
"D c #8B8A8B",
"F c #8B8B8B",
"G c #8C8A8C",
"H c #8C8B8C",
"J c #8D8B8D",
"K c #8E8C8E",
"L c #989497",
"P c #999598",
"I c #999699",
"U c #9A9699",
"Y c #9A979A",
"T c #9B989B",
"R c #9E9C9E",
"E c #9F9D9F",
"W c #A09EA0",
"Q c #A9A9A9",
"! c #AAAAAA",
/* pixels */
"SSPP--jjjgbxbxkk*;LPbbxbGS;;mn;*SSPP;;jjkhcccckgf=IImxmxDD--xc;;",
"SSPP--jjjjcbxbjj;*LLbbxxSG;*xx*;SSPP&*jjkkccccggf=IIxxxmDD--xm-;",
"PPBBJJ--bbjjxc--GGMBBBMBBB*;;;bbLPNNJJ&&ccjgccf=HHMMMBBBBB;-;;xc",
"PLBMSS--bbjjbb--GGBMBBBMBB;*;;mbPPNNSS*&ccjjbbffHHMMBMBBBB;;=;mv",
"PPSHBB--jl--kj--BBBBxbPP*;BA;&BAPPGGBM*;kj--kk;&MMMBmxPP--BZ;-BB",
"PPHSMB-;jg-;jj--BBBBbbPL*&BB&;ABPLGSMA*&kk--kk&;MABMxmPP-;BB==BA",
"PPBMSHBB;*TLkkttBBPLHHNNSHNBxxBAPPMBSJBB--PLkkqeAAIIDDMBSSBBbxBA",
"PPMBHHBB**TPjgttBBTLGGNBSSBBxmABPPBMGJBB--YLkkiiMMIYDDBMGHBBbbBZ",
"IISS=;HGGSVV%;NNBB;;gg!QBBi8PPMBPPSJ--SHHSBB==MABB--kg!!BButLPAA",
"LIDD;=HGGSdd;;MMBB;;jgQQMMtiTPAAPPGG*fJFHSkB==MMBM--gk!!BB0iLTAB",
"DDaa$$=;kAJGGJKKxbklxx;*--PTBMf=GSss#%*fVVKKGGKKbbkjxx;%--PPVA--",
"DGpa$$;=JVJJGJJKbxjlbb;;--TPMB=fSGps##*fAAKKGGKKbbkkbb;%--YPBk--",
"aaii%%%%ieFGeef=bbbm;***MBBBMAccssyy#%#%eeJJeef;bbbb;;;;VVVVVdzm",
"adii%%%%eiFGeeffbxmm*;;;ABBAMAcmssti%%%#eeJKeif%bbmb;;;;VAdVAVmm",
"8767:3XX9988:333,,O.OOXOO 778855696942OO8988:4:4<,++XXXXXX866888",
"777713XX5558:3:3,>....XXXO7758806886<<..8440::4:<,  XXXXXX888888",
"bbxm;-WWEEEWHK::KDWWWWWWRWf-ccccmbcm%;WWEEWWHH,,HSWWWWWWWW;;xmxm",
"mbbb--WWEEEEGK44DDWWWWEWRRf-ccccncmn*;EWEEEEHH,,GGWWWWWWRW%%vvvv",
";-DDDDSSDDMMMA<:YYDSMMDDJSJFFKf=f*HHGSHSSSBNBB,:TPSSVVHSGGGGSG;;",
"--DDDDDSKKAMMM<:YYGDMMDDSFSJFF=f*;HSHSSHSHBBBB,,TLSGAkSHGGGSGG;=",
"DDMBBMDDMAMMKK::TTMMqqDDttSJ--BBGGBMNNHSBNNBGH,,TPdVttGHyyFD;=MM",
"DSBBMBDDMMMAKK44TTMdiqDD9tFFffBBSGBMNNSHNBBBGG,,TPBBttGG0iKD=;MA",
"BBDDDDBMMMlxyy::YIttMAiiBBBB  HHMBSSHSNNNBxxtt<:TPttBBttMMMAXXGH",
"BMDDDDMBMNmxyy<:YTtiMMi0BBBBXOHHBBSHSSNBNBxmtt<,PTttNBttAMMAXXHH",
"MBMMBBBAHKllHK::SFkkbbBBJJBBttttMBBMBBBBFSbbHH>:HJjjbbBBDDBAiitt",
"BMBBBBBjKKbmKK::FFkjbbMBSFBBttttBMBBBBBMJFxxHH,,HSjgbbdBFFBBt0tt",
"DDDDttJSxnxbHK::FFccBBSJSJBBBBHHSSHH9tGSxbxcHH,,HHbxBBHSSFBBBMDD",
"HHHHttHSmxmxKK:<FSccVdFSFFBBBBHGHHHHyyHSbxbbHH,,HHcxBBHSFFBBBAJF",
"iiutjjjjmxGGPP<<iiklkkJFttBBBBttu0ttjjllbbJFLT22ttgjjjHFttBBMAt0",
"0iiillllmmGGYY<<iikkllFJttBBBAuiuuttjckkbbFJTT22iijjllJHutBBBAit",
"AAXXOOOO@o00<<<<<<XX@OOO9997OOX@AAOOOOOXOO97222244OOOOOO7979OO@O",
"BAXO@OO@@@00<<4444@@@O@O0999O+@@ABO@OO@@@O99224444@OO@O@0999@@@@",
"SSPT*-jjlgxbbbjj-;PPbxbbSS*-bb-;SSLP;-kjjjbxbxkj--PPbxbbHS--xb;;",
"SSPT*-jjkjbxxbjj;-PPxbxbFD--bx-;SSLP;-jjjjxbxbgj--PPxxxbHH--bb--",
"PTMMFJ--bbgjbx--HHNNBBBMMA*-;-bbLPBMFJ--bbjgbxf-JFBMMBBBBB;--;xb",
"IPMMSF--bbjkbb--HHNNNBMMMB-f--bbLPBBSS--bbjjbb--FJMBBMBBBB---;bb",
"LPSSBB;-lj;;jj--BBMBxbPP;-MB--ABPPSFMB--jj-*kg--BBMBbbPP-;BZ--AB",
"PPFSMB--jj-;jk--BBBMxcTT--BB--BAPPFJBV--jj--kg--BBBBxbPP-;BB--AB",
"PPBMSJBV-;LLkkttMBPPJSMBJFBBbxBAPPVMJFMV--TLjj0iBBPPDSBBSSBBbxBZ",
"PPMBHHBd-;PPljttBAPYSDBMFJBBxxABPPMMFJMV--TLjjiiBBPTSHBMSHBBbbBZ",
"PPHD--JFHSBB--BBBB;-gjQQMBitPPBAPPSJ--DHHDBB--BBBB--gjQQBByqLUAA",
"PPSS--FJHHBB--BBBB-;ggQQMB0uPPAAPPJF--HHHDMB--BBBM--gjQQBByyLTAV",
"SSda#$--BBHHSGHSxbkkxx;;;-TPBM--JSaa$$--BBSHJFFFbbjjbx--;*LPMMf*",
"SJad$#ffBBHHSHHHbxkkbx--;;PPMB--SFaa$$-fABHDFJFDbxkjbb--%fTLMM**",
"adti$%$$utGGee;;mmmb;;;;BBBBBBbbadtt#&$$iyHHitf-bbbbf---BBBVBMcc",
"dati$$%%uuGGeu;;mmmb;;;;ABZBBAbbdati$$$#i0HH0u--bbmm-f-fZABVABbb",
"77702,+X7776,<,,<<.oO. O+o77777779794<X+777744:4<,++OXXOOO777777",
"777514XX6566,<<<,,+ .    +7777777777<<XX7667:<4<<,  X O X 797777",
"bbbb=;WWWWWWGK::HGWWWWWWWE#;bbbbmbcm%;WWEEWWHH,,HSWWWWWWWW;;xmxm",
"mbmb%%TWWWWWKG:4HHWRRWREWE;%mbbbncmn*;EWEEEEHH,,GGWWWWWWRW%%vvvv",
"**JJGSGGGSMMBA4:TTHKNNHGGGHHSF*ff*HHGSHSSSBNBB,:TPSSVVHSGGGGSG;;",
"--HJSGSGSGMMBA::PPHHNdGGGHHHFF*f*;HSHSSHSHBBBB,,TLSGAkSHGGGSGG;=",
"FJBMBMGGBAkAGG:4TLBA9tHH0tKHf-MAGGBMNNHSBNNBGH,,TPdVttGHyyFD;=MM",
"SFMBMBGJBAAMGG,:TTjAitHH9tKK--MMSGBMNNSHNBBBGG,,TPBBttGG0iKD=;MA",
"BMJSJSBVBBxmei,:PLttZBttMMMMXXFJMBSSHSNNNBxxtt<:TPttBBttMMMAXXGH",
"MBSFSFkGBBmxei,:TPttBBt9MMAAXXJFBBSHSSNBNBxmtt<,PTttNBttAMMAXXHH",
"NNNNBBNNAGmxKK,,HHjjbbBBFFBVttttMBBMBBBBFSbbHH>:HJjjbbBBDDBAiitt",
"NNBBBBBNGGxxKK<<HHjgbxMMFFBBtttiBMBBBBBMJFxxHH,,HSjgbbdBFFBBt0tt",
"GSDH0iHHkxxmGK::HHbxBBGSHSBBBBSJSSHH9tGSxbxcHH,,HHbxBBHSSFBBBMDD",
"DDDDyiHKxxxxGG:,HHbbBMGSHHBBBBHSHHHHyyHSbxbbHH,,HHcxBBHSFFBBBAJF",
"i0t0llkkmlGGYT:<ttjjjlHHttBBBButu0ttjjllbbJFLT22ttgjjjHFttBBMAt0",
"iiiulkklmkGKTT,:iiklljHJtiBBBZuuuuttjckkbbFJTT22iijjllJHutBBBAit",
"AAOOXo@o@@00,,,,42O+OOOO9977+O++AAOOOOOXOO97222244OOOOOO7979OO@O",
"AAXX@X@@@@00444444@O@O@O0997++@+ABO@OO@@@O99224444@OO@O@0999@@@@"
};
