/* XPM */
static char *_27f22c5c7694ba7e253caf5c90dcec6KOcyh4pmV7B5MQzO[] = {
/* columns rows colors chars-per-pixel */
"64 64 151 2 ",
"   c #4F5D2C",
".  c #515F2D",
"X  c #515E32",
"o  c #53612F",
"O  c #5B7B2F",
"+  c #556234",
"@  c #57613B",
"#  c #59633C",
"$  c #5B693B",
"%  c #5C7C33",
"&  c #5D743F",
"*  c #5E7C39",
"=  c #607F36",
"-  c #627E3C",
";  c #464745",
":  c #4B4C4B",
">  c #50504F",
",  c #545454",
"<  c #575857",
"1  c #59565A",
"2  c #5B5B5C",
"3  c #5C6940",
"4  c #5F7442",
"5  c #5F615F",
"6  c #607546",
"7  c #647D43",
"8  c #60615F",
"9  c #5D5766",
"0  c #5F5B61",
"q  c #615D63",
"w  c #615B6A",
"e  c #5F6160",
"r  c #636463",
"t  c #666A65",
"y  c #686967",
"u  c #66646A",
"i  c #68666C",
"p  c #676A6B",
"a  c #6B6C6B",
"s  c #6D716D",
"d  c #71706F",
"f  c #6B6673",
"g  c #6D6D72",
"h  c #726E73",
"j  c #6F7073",
"k  c #747475",
"l  c #767876",
"z  c #787877",
"x  c #767478",
"c  c #79767A",
"v  c #777878",
"b  c #7C7C7C",
"n  c #807F7F",
"m  c #618037",
"M  c #64813E",
"N  c #68863D",
"B  c #668145",
"V  c #6A8444",
"C  c #6B8349",
"Z  c #71854A",
"A  c #74894C",
"S  c #779247",
"D  c #789346",
"F  c #7B934D",
"G  c #748652",
"H  c #768A53",
"J  c #798C55",
"K  c #7B8D58",
"L  c #7E9454",
"P  c #7F807F",
"I  c #809556",
"U  c #829954",
"Y  c #829659",
"T  c #839959",
"R  c #80807F",
"E  c #7E7C82",
"W  c #817E82",
"Q  c #7F8080",
"!  c #838383",
"~  c #858585",
"^  c #848884",
"/  c #868886",
"(  c #85838A",
")  c #898589",
"_  c #898689",
"`  c #8B878B",
"'  c #878888",
"]  c #888988",
"[  c #898989",
"{  c #8B898B",
"}  c gray54",
"|  c #8B8B8B",
" . c #8B8C8B",
".. c #8C8A8C",
"X. c #8E898E",
"o. c #8E8B8E",
"O. c gray55",
"+. c #8D8C8D",
"@. c #8F908F",
"#. c #888391",
"$. c #8E8A92",
"%. c #8F8D90",
"&. c #8F8999",
"*. c #908B91",
"=. c #908D90",
"-. c #918E93",
";. c #938D9B",
":. c #909090",
">. c gray57",
",. c #929292",
"<. c #939393",
"1. c #939493",
"2. c #959295",
"3. c #959595",
"4. c gray59",
"5. c #979797",
"6. c #96929B",
"7. c #9A979A",
"8. c #989898",
"9. c #9A9A9A",
"0. c #9B9B9B",
"q. c #9B999C",
"w. c #9C9B9D",
"e. c #9F9F9F",
"r. c #9FA09F",
"t. c #9F9CA0",
"y. c #9F9DA0",
"u. c #A09FA1",
"i. c #A19DA3",
"p. c #A19EA2",
"a. c #A49CA9",
"s. c #A89FAC",
"d. c #A89DB0",
"f. c #A1A1A1",
"g. c #A3A1A5",
"h. c #A4A1A5",
"j. c #A4A2A4",
"k. c #A5A3A7",
"l. c #A5A5A5",
"z. c #A7A4A8",
"x. c #A7A7A8",
"c. c #A9A7A9",
"v. c #A9A6AB",
"b. c #AAA8AB",
"n. c #ABAAAC",
"m. c #AEABB1",
"M. c #AFACB0",
"N. c #B1ABBA",
"B. c #B5B3B5",
"V. c #B6B4BB",
"C. c #B8B3BF",
/* pixels */
"y 2 ! v e.q.q.j.h h u.q.q.q.q.u.b z u.w.q.q.q.t.) ) ` ` | <., < v.e.q.0.f.f.e.f.O.3.f.f.5.q.q.5.5.5.5.q.q.0.r.r.<.O.<.<.<.k 2 r ",
"y 1 ! v l.u.u.l.k k l.f.u.r.u.k.b b u.u.i.u.e.k.) | ` `  .1.: 2 f.5.:.@.3.q.3.5.| O.5.1.1.1.O.O.~ |  . .<.O. . .| ~ | | | k 2 r ",
"k a ! b z z z b 2 2 b z ! ) ! ) h h ) ~ c x ) ) v b ....b ! , 2 f.3.) ! ) / / / k b | ~ ! ~ ~ | s k b R b b z l b b b z b a 2 r ",
"t 2 ! b ~ ~ ~ | 1 1 ! b ....` *.k k -.<.n b | | ! ! O...b ^ , 1 f.3.] / | ] / ) c v ] |  .| ] | d k P R b z z x b b ! ! b k r r ",
"k.v.z ~ 1 2 2 1 b b b n b b ` ..n ! 8 8 R n b ! 2 , ! b b ) , 2 @.~ k k z z z z ) ! b z b ! ! ! b ! | ~ ~ b ! b R z k d t r 2 5 ",
"k.l.n  .< 2 < , ! l ! n W b ..*.b ! t r / ! ! | r 2 ! ! b | , 2 5.| z k R b n b ! ! b z b b z c b R ! E b b b ! b b b b i r 2 2 ",
"k k 1 , 5...b.B.; : ! b n b b b b n ! ] < 8 2 2 r 8 k k k b , < 5.| k k n ! ] ] R ! b b z z b l z z z z z b b b ! R ) ) a y 2 r ",
"k k 1 , <.) k.b.; : | ! ! n n ! n n n ! 2 2 r r 2 1 c z c b , 2 q.| a d n ! ] | b R b R v k l k z z z z z b ! ! b ! O.| a r 2 8 ",
"k.l.n ) d k b x <.9.< 1 v x n n k k b b z W 8 2 ) ) x c y a < 1 5. .k z l z z z z z b z | | | | | O.~ ) ..b y k b ! O.| k i 2 2 ",
"u.k.b ! x x R b ..<.1 2 v k ! ! k h R R x E 1 < ) ! b W y a < 2 5. .c z x z z z b z v x | ~ ! ! ! ! ! ) ! b l k b ! ! ! a y 2 8 ",
") ` h x x x x x k k b c ! ! r r <.<.b ! x k <.q., 8 > : b n < 1 3.] k b b z z b E z k a n b b b l k l l k k n n z l z v t r 8 r ",
"-.-.x v b z v v z c x x ! ! y r 1.:.R R x x ..2.1 r < , n n < 2 5.| z z b z z z ! z l x R R W R b l n l k l ! n b b b k a y 2 r ",
"v k r y t y y y y y c c t t y a 8 t l x y y k k a d , 1 8 8 1 1 <.! k k k k k k s a a y d d a d d k x k d u y r a a k c d y q r ",
"n b a s a d s s a a n b a d s d s i z b y i b b a d , < r y , < R k a a d d d a y i i y y t t y a a a a a y q 8 a a d d a u 8 8 ",
"t 2 r r < < , , 8 8 8 8 > , > < , , 8 8 8 r 5 2 r 8 r y r q t r 2 2 < 2 2 2 1 < 2 2 2 2 1 1 2 2 < 2 1 2 8 8 8 8 2 0 2 2 8 2 , 8 ",
"2 < < < : : < < 2 2 8 8 < < < 2 , , 2 2 r r 2 2 < < , < < < < < < < 2 < < < 2 1 < , , 1 < 1 2 5 , , < < 1 2 8 2 2 2 2 < 2 < , 1 ",
"v.z.z.z.v.B.2 2 5.<.v W r t 1 , O.! @.q.> : 0.O.b.v.j.k.l.z.z.z.9.u.9.e.e.f.r.f.l.z.l.z.f./ 2 < B.n.z.l.f.9.<.<.f.f.z.l.3.f.z.l.",
"u.u.t.u.q.b.1 1 2.O.h z 2 q < , R b  .5.> > <.| f.f.f.e.u.u.7.e.O.O.O. . .| /  .O.<.O.<.| z 2 1 c.9.<.5.<.<.O.!  .:.<.=.!  . .:.",
"W c l x ! | y y n b R ! a k , : :.:.h x q r k h b k ! | k v ` ) z l k k b z d s ~ b n b y y 1 1 5. .^ | b b b z l l k k k k l z ",
"! b W b  .@.t 8 / ! b ! t a , , 2.-.x b 2 2 v h b b | O.! ! O.| b v x l ! z d k b b n n t r 2 < 0.:.) ] b b ! ! l c l b z b z b ",
"<. .| :.b b :.7.1 1 ! b x b , , x x 2 1 b k *...| O.l ! 1 < ! b | ~ | ) z x k d z R | ) x a 8 8 f. .b b b ! b ! v ! | ~ z z z z ",
"*.) | O.b b ] <.2 8 | ~ b ! , , k k 2 2 v k =.*. . .! O.1 < ! R | ~ ~ ~ l x z l b ! ! R x y 2 2 f.3.n R z R z z R ! | | b z z b ",
"W b b b n n b ! , , 2 8 > , r < n.v.W ! ..*.b b b ! 1 , | ! b R P b b ! R ) | | ~ ~ R P y i 2 2 l.1.] ] k d k k b b b R b b z z ",
"! b b n n b ! | ; : 2 8 > > y < j.f.k b O...n n b R 8 8 ! R ! b ! ! R b b ! ~ ' | ! R n d r 5 < l.<.O. .a k k a ! ! b ! ! b z b ",
"! b n b R ! t 5 b.n.<.<.-.w., : l.f.l n b b R b ..2.2 8 z x W n z l z z b ! ~ | | ! k z i t < < w.O.k z R b n b c l z x z b z z ",
"~ ! ! W R ! r 2 z.f.) | | 1.> : z.l.b n b R R R ..-.2 r c x W b b z b z z b ! ! ! b z x r 8 8 2 9.O.b k ! R b ! n l z b b z z z ",
"c c k c r r <.@.x v n n k l , > *.` k k b R k h ` <.> > z v x x ~ ! b b z z l k z d k z y r r 2 q. .| | | ! z ! O.! k z ..W k k ",
"W k b c t r <.<.n W n W x b , > 2.-.k k ! ! c k -.7.> , ! b z z ! ! ! b b z b z R k k k r r 8 2 q.@.| | O.~ b n | ~ z z O.~ s k ",
"a y y t b z r 8 x k k k W ) , , x x t y t t z c r t , 1 , > a t y y a u i u a a r a k b b d r 2 1.R y a k k k h a a a s i y t y ",
"h a d t b b a y n v b x !  ., , n n d d a i b b i k , , 1 , d a r r u t t y a i t i a a d i 2 2 b k r y d a d a y y y i 8 r u t ",
"y 8 8 2 0 2 0 0 2 2 0 8 , > 1 1 , , , , 8 q 2 2 8 q r r r r q 2 8 8 8 8 2 2 2 2 8 q 2 2 2 2 2 r 1 2 2 r 8 8 2 2 0 8 2 1 2 2 1 2 ",
"a u u u t y y y u t t u 2 8 2 8 2 2 2 2 y t y t t t t u t t t t 8 8 8 q 8 r r 8 8 8 r 8 2 2 8 2 2 2 8 2 q r 8 r 8 2 8 2 2 2 r 2 ",
"%...q.a.M B K J K H Y L L L J K B 4 d.t.L L L L %.;.B B T T B C u 2 ! z f.w.w.u.d k e.w.7.q.w.u.l l u.q.w.w.9.u.! ` ` O.` <., , ",
" .( q.u.% * K H H H K K K L H J * % a.t.S F L L $.-.* 7 T T 4 B u 2 ! z l.e.e.v.k c k.u.w.u.u.k.b W i.u.u.u.p.i.` ..) ` O.-., 1 ",
"q.q.b b $.;.* - Y L G G L Y 7 * ;.;.E Q Q Q P P Q ( - 7 7 4 T L h y R b l l l b 2 < b z ~ ) ! ) h h ` ) l l ] ) b z ..O.b ! , 1 ",
"q.q.P Q O.;.M 7 Y L H K L Y 7 * &.@.Q Q E ( E b ' #.m - B B L L r 8 ! R ) ! ~ ..2 1 ! b O...) *.k k 2.-.b b  . .! ! ..<.b ) , 2 ",
"q.q.| ..E ( - 7 H H 7 7 J J 7 M ( Q Q ~ F S t.a.% * #.( M M #.( l.c.b W 1 2 8 1 b z ! W b b | | W W 8 r n n b ! < < R b b ] , < ",
"q.q.) -.b ( m * K K * * J J M m ( ! Q E F S a.a.% % ( ( m M ( ' k.l.n O., 2 , , ! k R b ! b ..-.b ! r r ! ! !  .8 2 ~ R R ] , 2 ",
"w.w.b ! O.<.( #.* * d.a.A H k g ~ P t.t.| $.b b -.-.! ( L L Q ( x k 2 , 7.O.v.B.: : ! n b n b b b b ! | < 2 2 2 r 2 z x k b , 2 ",
"q.w.b b ;.$.E ( % % a.t.A H p a Q E a.a.&.$.b b %.O.! ( S S ( ' k k < , <.O.j.n.; ; | ! W n n n ! W b ) 2 8 r r 2 1 z x z n , < ",
"q.q.` *.= % -.*.;.-.b E * M #.~ ~ ( % % A V V.B.b ! t t a.t.Q ' j.c.n ` k h v x 3.w.< < l x R R k k n n z n 8 2 O.) l c y a 1 2 ",
"q.q...;.- - ;.-.O.O.! ( = % ( ! Q ( * 7 H C C.V.E ' t t a.t.( ( e.u.b ! x x W n ..<.1 2 z k ! ! h k n ! x R 1 < | ! l W t a < 1 ",
"..| k W $ 6 - = ( E O...$.-.O.$.F L H H I L % * M % s.t.b Q % M ` ` h k l c c k h k b b ! / r 8 <...b n k h -.7., 8 > : b n < 1 ",
"-.-.c W 6 6 V M ` ! O...<.$.$.;.L L H G I Y 7 7 - * a.t.E ( * B -.*.x l c l l z c x x k R ! y t <.-.n R c x =.2.2 r 1 , n n , 2 ",
"b b a k - 6 6 & j p <.O.y a = - Y L I U 7 7 B M #.( E Q ! ! L Y x k y t t t t y y y k c y y y a t r l x y y k k a d , < 8 8 < 2 ",
"W W d k - 6 6 6 k s 5.<.s k N M U U U I B V V M &.{ ~ / ' ' L U W b a s s d d s a a b b d a a d a a b b a a b b i d , , u r , < ",
"i t u a q w $ + f y r r 0 0 q q 9 9 X , 3 X # 3 X + i t r t u u y 2 r r , < , , r 5 8 8 , , , , , , 8 8 8 q 8 8 8 8 r y r q t r ",
"i u u u q w . . r e r r 1 2 q u 1 0   X X X X X X   f i i w u i 2 , 1 1 : : < < 2 2 2 r < < < 2 , , 2 1 r r 2 2 < < < < < < < < ",
"U I U U - = N.v.v.v.v.b.-.5.2 2 q.<.m.m.v.v.v.v.m.N.* 7 U U U U v.k.v.l.v.B.2 5 7.2.l W 8 i < , O.~ <.q.> > 9.=.b.v.j.v.k.z.z.z.",
"Y I F U * % v.u.i.i.g.k.| <.2 1 -.~ u.i.i.k.f.g.i.v.% * L F L Y p.u.u.u.q.b., 2 <...k c 2 r < , R z ..1.> > <.) i.e.e.e.e.e.e.t.",
"7 * ;.$.-.-.| ....| b b ! ~ 0 1 g.u.' { b b ` { | | $.$.$.;.* 7 W b l z !  .t y b b R ! t d < > <.O.k k 8 8 c h z x ! | x k ) ! ",
"7 % -.......| O.....Q ! b ~ 1 1 i.q.| ..! ! O.{ ....|  .-.;.* 7 W b n z | 3.8 8 ! ! b ! t d < > <.2.k b 2 0 x h n b  .O.! ! O.O.",
"-.-.P P P b O.O.Q Q ~ P -.2.2 1 g.q.b ! s t :.:.t t %.$.* m #.( ..O.....b b -.7.< < ! R k b 2 , v v 2 1 b z *...O...l ! 1 < n n ",
"O.-.E ! Q Q O.O.Q ~ Q ~ <.2.1 1 i.q.! ' a p <.1.a p %.<.M M ' Q -.) ..O.b b | <.8 2 | ~ b W , : k k 2 2 v d -.` | O.! O.2 < ! n ",
"! b O.O.O.-.! Q Q Q D F a s 0 1 g.t.t a ^ / t s / ~ Q ( X X <.%.! b b b ! b b ! , , 2 8 , > t , v.v.R ! $.*.b b b ! < < | ! n b ",
"~ W O.=.O.O.b ! Q Q L L a s 0 1 g.f.p s ( ( a a ! Q ! ' + + 6.:.! W b W b b ! O.: : 2 2 > > i 2 f.u.z b O...b n b n 8 2 ! R R n ",
"~ Q Q Q E ! ! ! &.&.F H <.5.2 1 <.$.A H F F ( ( %.%.Q ~ j j a s ! b n n n W t 2 m.n.:.-.2.w., ; k.u.z n b b R b ..2.2 8 z h W W ",
"Q Q Q Q ! ! ! W $.&.F F &.@.2 1 <.O.Z G F F E Q O.O.Q ~ s s s s ~ R W W n ! r 0 v.u.) ....<.> : v.g.b b P P R b ) <.2 q z v ! n ",
"<...%.<.t t -.*.F F L L $.-.2 1 <.$.F F ( ( %.O.O.O.Q ~ ^ Q <.%.b c k c y r <.=.v v E W k k 2 > *.| k k P b x d ..<.> > b c k c ",
"1.%.%.2.s a -.*.F L F S | -.0 1 5.<.L L ( E O.O.%.:.Q ^ Q Q %.<.b z l E y r 1.-.b n n W k b , > -.-.x v ! ~ v k -.7.> , W b v k ",
"s s s p F H A A L F &.*.t.u.1 q s a H H A A $.@.p p ^ ! ! ~ y s d t y t c b 8 8 v k x k ! / , , k k y y y r z z r y , 1 , > a y ",
"s s k j K I K K Y U -...u.v.1 q v k L J L J 6.6.s s ' ^ ) | j v k a a i c b s a c b z z !  ., , ! R d a a i b b i k , , < , d a ",
"' $.+ # # # > 3 X X u t 1 1 r q 0 w @ @ @ @ + + a i t i + + # $ r 8 8 2 8 2 8 8 2 0 2 8 > , 1 2 , , , , q 8 q 2 8 8 r r r r 8 8 ",
"| $.+ 3 $ 4 $ 3 3 3 g a q r r u r u $ 3 3 $ 3 $ g a a g $ 3 3 3 a t u t u t y r y y t i 2 2 2 8 2 2 2 2 t u t t t t u t t r u t "
};
