/* XPM */
static char *d178469c99864bb6bac8c22e060e6165qFhG4tCam1hTc3cx[] = {
/* columns rows colors chars-per-pixel */
"64 64 5 1 ",
"  c #070707",
". c gray20",
"X c gray34",
"o c gray39",
"O c #979797",
/* pixels */
"XX........XXOOOO  OOXX........XXXX........XXOOOO  OOXX........XX",
"XX........XXOOOO  OOXX........XXXX........XXOOOO  OOXX........XX",
"XXXXOOOOOOOOOOOO..OOOOOO  XXXX..XXXXOOOOOOOOOOOO..OOOOOO  XXXX..",
"XXXXOOOOOOOOOOOO..OOOOOO  XXXX..XXXXOOOOOOOOOOOO..OOOOOO  XXXX..",
"XX  ....  ......OO..XXXXXXOOXXXXXX  ....  ......OO..XXXXXXOOXXXX",
"XX  ....  ......OO..XXXXXXOOXXXXXX  ....  ......OO..XXXXXXOOXXXX",
"XXOOXXXXXX  XXOOXXXX..........XXXXOOXXXXXX  XXOOXXXX..........XX",
"XXOOXXXXXX  XXOOXXXX..........XXXXOOXXXXXX  XXOOXXXX..........XX",
"XXOOOO..............OOOOOOOOOO  XXOOOO..............OOOOOOOOOO  ",
"XXOOOO..............OOOOOOOOOO  XXOOOO..............OOOOOOOOOO  ",
"....XXXXXX......XX  XXXX....  XX....XXXXXX......XX  XXXX....  XX",
"....XXXXXX......XX  XXXX....  XX....XXXXXX......XX  XXXX....  XX",
"OOOOXXooXX..OOOOXXXXXXXXOOOOOO  OOOOXXooXX..OOOOXXXXXXXXOOOOOO  ",
"OOOOXXooXX..OOOOXXXXXXXXOOOOOO  OOOOXXooXX..OOOOXXXXXXXXOOOOOO  ",
"XXXXXX............  ........XXXXXXXXXX............  ........XXXX",
"XXXXXX............  ........XXXXXXXXXX............  ........XXXX",
"XXOOOO  OO..XXXXXXOOOOOOOOOOOOOOXXOOOO  OO..XXXXXXOOOOOOOOOOOOOO",
"XXOOOO  OO..XXXXXXOOOOOOOOOOOOOOXXOOOO  OO..XXXXXXOOOOOOOOOOOOOO",
"XX............XX  XXXX......OOXXXX............XX  XXXX......OOXX",
"XX............XX  XXXX......OOXXXX............XX  XXXX......OOXX",
"XXXXOO....OOOO..  ..OOOOOOXXXXXXXXXXOO....OOOO..  ..OOOOOOXXXXXX",
"XXXXOO....OOOO..  ..OOOOOOXXXXXXXXXXOO....OOOO..  ..OOOOOOXXXXXX",
"  XXXXXX..XXXXXXOOOOXXXXXXOOOO    XXXXXX..XXXXXXOOOOXXXXXXOOOO  ",
"  XXXXXX..XXXXXXOOOOXXXXXXOOOO    XXXXXX..XXXXXXOOOOXXXXXXOOOO  ",
"XX..............OOOO..........XXXX..............OOOO..........XX",
"XX..............OOOO..........XXXX..............OOOO..........XX",
"XXOO..OO  XXXX......  ..XXXXOOOOXXOO..OO  XXXX......  ..XXXXOOOO",
"XXOO..OO  XXXX......  ..XXXXOOOOXXOO..OO  XXXX......  ..XXXXOOOO",
"XXXXXX..........XXXXOOOOXX....XXXXXXXX..........XXXXOOOOXX....XX",
"XXXXXX..........XXXXOOOOXX....XXXXXXXX..........XXXXOOOOXX....XX",
"........  OOOOXXXXXXXX......XXXX........  OOOOXXXXXXXX......XXXX",
"........  OOOOXXXXXXXX......XXXX........  OOOOXXXXXXXX......XXXX",
"XX........XXOOOO  OOXX........XXXX........XXOOOO  OOXX........XX",
"XX........XXOOOO  OOXX........XXXX........XXOOOO  OOXX........XX",
"XXXXOOOOOOOOOOOO..OOOOOO  XXXX..XXXXOOOOOOOOOOOO..OOOOOO  XXXX..",
"XXXXOOOOOOOOOOOO..OOOOOO  XXXX..XXXXOOOOOOOOOOOO..OOOOOO  XXXX..",
"XX  ....  ......OO..XXXXXXOOXXXXXX  ....  ......OO..XXXXXXOOXXXX",
"XX  ....  ......OO..XXXXXXOOXXXXXX  ....  ......OO..XXXXXXOOXXXX",
"XXOOXXXXXX  XXOOXXXX..........XXXXOOXXXXXX  XXOOXXXX..........XX",
"XXOOXXXXXX  XXOOXXXX..........XXXXOOXXXXXX  XXOOXXXX..........XX",
"XXOOOO..............OOOOOOOOOO  XXOOOO..............OOOOOOOOOO  ",
"XXOOOO..............OOOOOOOOOO  XXOOOO..............OOOOOOOOOO  ",
"....XXXXXX......XX  XXXX....  XX....XXXXXX......XX  XXXX....  XX",
"....XXXXXX......XX  XXXX....  XX....XXXXXX......XX  XXXX....  XX",
"OOOOXXooXX..OOOOXXXXXXXXOOOOOO  OOOOXXooXX..OOOOXXXXXXXXOOOOOO  ",
"OOOOXXooXX..OOOOXXXXXXXXOOOOOO  OOOOXXooXX..OOOOXXXXXXXXOOOOOO  ",
"XXXXXX............  ........XXXXXXXXXX............  ........XXXX",
"XXXXXX............  ........XXXXXXXXXX............  ........XXXX",
"XXOOOO  OO..XXXXXXOOOOOOOOOOOOOOXXOOOO  OO..XXXXXXOOOOOOOOOOOOOO",
"XXOOOO  OO..XXXXXXOOOOOOOOOOOOOOXXOOOO  OO..XXXXXXOOOOOOOOOOOOOO",
"XX............XX  XXXX......OOXXXX............XX  XXXX......OOXX",
"XX............XX  XXXX......OOXXXX............XX  XXXX......OOXX",
"XXXXOO....OOOO..  ..OOOOOOXXXXXXXXXXOO....OOOO..  ..OOOOOOXXXXXX",
"XXXXOO....OOOO..  ..OOOOOOXXXXXXXXXXOO....OOOO..  ..OOOOOOXXXXXX",
"  XXXXXX..XXXXXXOOOOXXXXXXOOOO    XXXXXX..XXXXXXOOOOXXXXXXOOOO  ",
"  XXXXXX..XXXXXXOOOOXXXXXXOOOO    XXXXXX..XXXXXXOOOOXXXXXXOOOO  ",
"XX..............OOOO..........XXXX..............OOOO..........XX",
"XX..............OOOO..........XXXX..............OOOO..........XX",
"XXOO..OO  XXXX......  ..XXXXOOOOXXOO..OO  XXXX......  ..XXXXOOOO",
"XXOO..OO  XXXX......  ..XXXXOOOOXXOO..OO  XXXX......  ..XXXXOOOO",
"XXXXXX..........XXXXOOOOXX....XXXXXXXX..........XXXXOOOOXX....XX",
"XXXXXX..........XXXXOOOOXX....XXXXXXXX..........XXXXOOOOXX....XX",
"........  OOOOXXXXXXXX......XXXX........  OOOOXXXXXXXX......XXXX",
"........  OOOOXXXXXXXX......XXXX........  OOOOXXXXXXXX......XXXX"
};
