/* XPM */
static char *cc606dad26004d418a836f157b4c1ccdL1DmiMAgFLoBdYQ0[] = {
/* columns rows colors chars-per-pixel */
"64 64 9 1 ",
"  c #070707",
". c gray18",
"X c gray20",
"o c gray34",
"O c gray47",
"+ c #7E7E7E",
"@ c #808080",
"# c #848484",
"$ c #979797",
/* pixels */
"ooooXXXXXXXXXXXXXXoooooo$$$$$$      $$$$ooooXXXXXXXXXXXXXXXXoooo",
"ooooXXXXXXXXXXXXXXoooooo$$$$$$      $$$$ooooXXXXXXXXXXXXXXXXoooo",
"ooooXXXXXXXXXXXXXXoooo$$$$$$$$$$$$  XX$$ooooXXXXXX  XXXXXXXXXXoo",
"ooooXXXXXXXXXXXXXXoooo$$$$$$$$$$$$  XX$$ooooXXXXXX  XXXXXXXXXXoo",
"XXoooooooo$$$$$$$$$$$$$$$$$$XXXXXXXXXX$$$$$$$$$$    ooooooXXXXXX",
"XXoooooooo$$$$$$$$$$$$$$$$$$XXXXXXXXXX$$$$$$$$$$    ooooooXXXXXX",
"XX  oooooooo$$$$$$$$$$$$$$$$$$$$XXXX##$$$$$$$$$$$$  XXooooooXXXX",
"XX  oooooooo$$$$$$$$$$$$$$$$$$$$XXXX##$$$$$$$$$$$$  XXooooooXXXX",
"ooXXooXXXXXXXXXXXXXXXX$$XXXXXX$$$$++XXXXoooooooo$$$$$$$$$$oooooo",
"ooXXooXXXXXXXXXXXXXXXX$$XXXXXX$$$$++XXXXoooooooo$$$$$$$$$$oooooo",
"oo  oo  XXXXXXXXXXXX  XXXXXXXXXX$$oo$$XXooXXoooooo$$$$$$oooooooo",
"oo  oo  XXXXXXXXXXXX  XXXXXXXXXX$$oo$$XXooXXoooooo$$$$$$oooooooo",
"oooooo$$$$oooooooo      ooooXX$$ooooooXXXXXXXXXXXXXXXX$$XXXXXXoo",
"oooooo$$$$oooooooo      ooooXX$$ooooooXXXXXXXXXXXXXXXX$$XXXXXXoo",
"XX$$$$$$$$ooXXoooooooo  ooooXXooooooooXXXXXX$$XX$$XXXXXXXXXXXXXX",
"XX$$$$$$$$ooXXoooooooo  ooooXXooooooooXXXXXX$$XX$$XXXXXXXXXXXXXX",
"oooo$$$$$$$$XXXXXXXXXXXXXXXXXXXXXXXX$$$$$$$$$$$$$$$$$$$$XX$$    ",
"oooo$$$$$$$$XXXXXXXXXXXXXXXXXXXXXXXX$$$$$$$$$$$$$$$$$$$$XX$$    ",
"oooooooo$$$$XXXXXXXXXXXXXXXXXXXXXXXXXX$$$$$$$$$$$$$$$$$$  $$    ",
"oooooooo$$$$XXXXXXXXXXXXXXXXXXXXXXXXXX$$$$$$$$$$$$$$$$$$  $$    ",
"XXXXXXXXXXXXooXXXXXXXXXXXXXXXXXXXXoooo  oooo$$XXXXXXXXXX    oooo",
"XXXXXXXXXXXXooXXXXXXXXXXXXXXXXXXXXoooo  oooo$$XXXXXXXXXX    oooo",
"XXXXOOXXooooooooooooXXXXXXXXXXXXoooo    ooooooooXXXX$$$$XXooooXX",
"XXXXOOXXooooooooooooXXXXXXXXXXXXoooo    ooooooooXXXX$$$$XXooooXX",
"oo##XX##oooo@@@@oooo$$$$$$$$$$$$$$oooooooooo$$$$$$$$$$$$      oo",
"oo##XX##oooo@@@@oooo$$$$$$$$$$$$$$oooooooooo$$$$$$$$$$$$      oo",
"$$  $$$$$$oo@@@@ooXXXX$$$$$$$$XXoooooooooooooooo$$$$$$$$$$$$    ",
"$$  $$$$$$oo@@@@ooXXXX$$$$$$$$XXoooooooooooooooo$$$$$$$$$$$$    ",
"ooooooooooooXXXXooXXXXXX$$$$XXXXXXXXXX  XXXXXXXXXXXXXX$$oooooooo",
"ooooooooooooXXXXooXXXXXX$$$$XXXXXXXXXX  XXXXXXXXXXXXXX$$oooooooo",
"ooooXXXXXXooXXXX$$XXXXXXXXXXXXXXXX  oo  XXXXXXXXXX$$XXoooooooooo",
"ooooXXXXXXooXXXX$$XXXXXXXXXXXXXXXX  oo  XXXXXXXXXX$$XXoooooooooo",
"oooo$$$$$$$$$$  $$$$XXXXXXXXoooooooooo$$$$$$$$$$$$$$$$$$$$$$oooo",
"oooo$$$$$$$$$$  $$$$XXXXXXXXoooooooooo$$$$$$$$$$$$$$$$$$$$$$oooo",
"$$oo$$$$$$$$$$    $$$$XXoooooooo  oo$$$$$$$$$$$$$$$$$$$$$$$$$$$$",
"$$oo$$$$$$$$$$    $$$$XXoooooooo  oo$$$$$$$$$$$$$$$$$$$$$$$$$$$$",
"ooXXXXXX$$XXXXXX  XXXXXXXXXXoooo      ooooXXXXXXXXXX$$$$$$$$$$oo",
"ooXXXXXX$$XXXXXX  XXXXXXXXXXoooo      ooooXXXXXXXXXX$$$$$$$$$$oo",
"ooooooXXXXXXXXXXXXXXXXXXXXXXXXoo    ooooooXXXXXXXXXXXXXX$$oooooo",
"ooooooXXXXXXXXXXXXXXXXXXXXXXXXoo    ooooooXXXXXXXXXXXXXX$$oooooo",
"oooooooo$$$$XXXXXXXXXX$$$$XXXXXXXX  XXXXXXXX$$$$$$XXXXoooooooooo",
"oooooooo$$$$XXXXXXXXXX$$$$XXXXXXXX  XXXXXXXX$$$$$$XXXXoooooooooo",
"oooooooooo$$$$XXXXXX$$$$$$$$XXXX    XXXX$$$$$$$$$$$$oooooooooooo",
"oooooooooo$$$$XXXXXX$$$$$$$$XXXX    XXXX$$$$$$$$$$$$oooooooooooo",
"    oooooooooo$$XXXXoooooooooooooo$$$$$$$$oooooooo$$$$$$$$$$    ",
"    oooooooooo$$XXXXoooooooooooooo$$$$$$$$oooooooo$$$$$$$$$$    ",
"    oo  ooooXXXXXXXXXXooooooXXXX$$$$$$$$ooooooooooXX$$$$$$$$$$$$",
"    oo  ooooXXXXXXXXXXooooooXXXX$$$$$$$$ooooooooooXX$$$$$$$$$$$$",
"XXXXXXXXXXXXXXXXXXXXXXXXXXXXXXXX$$$$$$XXooXXXXXXXXXXXXXXXXoooooo",
"XXXXXXXXXXXXXXXXXXXXXXXXXXXXXXXX$$$$$$XXooXXXXXXXXXXXXXXXXoooooo",
"ooooXXXXXXXXXXXXXXXXXXXXXXXXXXXXXXXX$$$$XX  ..XXooXXXXXXXXXXXX$$",
"ooooXXXXXXXXXXXXXXXXXXXXXXXXXXXXXXXX$$$$XX  ..XXooXXXXXXXXXXXX$$",
"$$oo$$XXXX++$$$$XX    ooooooooXXXXXXXXXXXX..  XXoooooooooooo$$$$",
"$$oo$$XXXX++$$$$XX    ooooooooXXXXXXXXXXXX..  XXoooooooooooo$$$$",
"oooooo$$++XXXX$$    ooooooooXXXXXXooXX    XXXXXXoooooooo$$$$$$$$",
"oooooo$$++XXXX$$    ooooooooXXXXXXooXX    XXXXXXoooooooo$$$$$$$$",
"ooooooooooXXXXXXXXXXXXXXXXXXXXXXXXXX$$$$$$$$$$$$ooooXXXXXXXXoooo",
"ooooooooooXXXXXXXXXXXXXXXXXXXXXXXXXX$$$$$$$$$$$$ooooXXXXXXXXoooo",
"ooooooooooooooXXXXXXXXXXXXXXXXXXoooooooo$$$$$$ooXXXXXXXXXXoooooo",
"ooooooooooooooXXXXXXXXXXXXXXXXXXoooooooo$$$$$$ooXXXXXXXXXXoooooo",
"XXXXXXXXXXXXXXXX    $$$$$$$$ooooooooooooooooXXooXXXXXXXXXXoooooo",
"XXXXXXXXXXXXXXXX    $$$$$$$$ooooooooooooooooXXooXXXXXXXXXXoooooo",
"XXXXXXXXXXXXXXXX  $$$$$$$$$$$$$$ooooooooooooXXXXXXXXXXXXooooXXXX",
"XXXXXXXXXXXXXXXX  $$$$$$$$$$$$$$ooooooooooooXXXXXXXXXXXXooooXXXX"
};
