/* XPM */
static char *_b02b4cb03674ae6d30fd29c14488477Kr0mQLUk9HvNQD8Z[] = {
/* columns rows colors chars-per-pixel */
"64 64 198 2 ",
"   c #020202",
".  c #070705",
"X  c #070707",
"o  c gray3",
"O  c gray6",
"+  c #0E110A",
"@  c #11130C",
"#  c #111111",
"$  c #131313",
"%  c gray8",
"&  c #151515",
"*  c #161616",
"=  c gray9",
"-  c #191C12",
";  c #1B1D17",
":  c #181818",
">  c #191919",
",  c #1B1A1B",
"<  c #1D1D1D",
"1  c gray12",
"2  c #23251E",
"3  c gray13",
"4  c #222222",
"5  c #232323",
"6  c #252525",
"7  c #272A23",
"8  c #282828",
"9  c #2A2A2A",
"0  c #2C2C2C",
"q  c #2F2F2F",
"w  c #343829",
"e  c #343A2A",
"r  c gray19",
"t  c #323232",
"y  c gray20",
"u  c #343434",
"i  c #353535",
"p  c #363737",
"a  c #383B34",
"s  c #3C3F36",
"d  c #393939",
"f  c #3A3A3A",
"g  c #3B3A3B",
"h  c #3D3C3D",
"j  c gray24",
"k  c #3E3E3F",
"l  c #3F3E3F",
"z  c #3F3F3F",
"x  c #394729",
"c  c #3E4437",
"v  c #44493B",
"b  c #4F5A3B",
"n  c #414141",
"m  c #434343",
"M  c gray27",
"N  c #464646",
"B  c gray28",
"V  c #494A47",
"C  c #484848",
"Z  c gray29",
"A  c #4C4C4C",
"S  c #4C4D4D",
"D  c #4E4E4E",
"F  c gray31",
"G  c #504F50",
"H  c #515151",
"J  c #535353",
"K  c #535550",
"L  c #555555",
"P  c #565656",
"I  c #575657",
"U  c gray34",
"Y  c #585858",
"T  c #585958",
"R  c #595859",
"E  c gray37",
"W  c #5F5F5F",
"Q  c #5A6341",
"!  c #596442",
"~  c #5B6442",
"^  c #5B6443",
"/  c #5C6643",
"(  c #5D6643",
")  c #5D6744",
"_  c #596B42",
"`  c #5E6D43",
"'  c #5D6845",
"]  c #616D4B",
"[  c #607446",
"{  c #62754A",
"}  c #63764B",
"|  c #66734C",
" . c #667D49",
".. c #667E48",
"X. c #667E49",
"o. c #677E49",
"O. c #687F4A",
"+. c #6B794F",
"@. c #5F5D60",
"#. c #605F60",
"$. c #605E61",
"%. c #615F62",
"&. c #625F62",
"*. c #616063",
"=. c #626063",
"-. c #626562",
";. c #626164",
":. c #636265",
">. c #646364",
",. c gray40",
"<. c #676667",
"1. c #676767",
"2. c #676868",
"3. c #696869",
"4. c DimGray",
"5. c #6A6A6A",
"6. c gray42",
"7. c #6C6C6C",
"8. c #6D6D6D",
"9. c #6E6D6E",
"0. c #6F6F6F",
"q. c #6D706D",
"w. c #6F716F",
"e. c #6E726E",
"r. c #6F726F",
"t. c gray44",
"y. c #717171",
"u. c #707270",
"i. c #717371",
"p. c #727172",
"a. c #717472",
"s. c #737474",
"d. c #747474",
"f. c #767777",
"g. c #777777",
"h. c #777878",
"j. c #7A787B",
"k. c #7B797C",
"l. c #7C7A7D",
"z. c #7D7B7E",
"x. c gray49",
"c. c gray50",
"v. c #69804A",
"b. c #6F8050",
"n. c #758655",
"m. c #768756",
"M. c #778955",
"N. c #778857",
"B. c #778858",
"V. c #788958",
"C. c #798A58",
"Z. c #7C8F58",
"A. c #7D9059",
"S. c #7D9159",
"D. c #7E9159",
"F. c #7E925A",
"G. c #7F8080",
"H. c #818081",
"J. c #808181",
"K. c #818282",
"L. c gray51",
"P. c #828383",
"I. c #838484",
"U. c #848585",
"Y. c gray52",
"T. c #848686",
"R. c #898588",
"E. c #8A898A",
"W. c gray54",
"Q. c #8B8A8B",
"!. c #8B8B8B",
"~. c #8C8A8C",
"^. c #8C8B8C",
"/. c #8D8B8D",
"(. c #8E8C8E",
"). c #909090",
"_. c gray57",
"`. c #979797",
"'. c #989497",
"]. c #999598",
"[. c #999699",
"{. c #9A979A",
"}. c #989898",
"|. c #9B989B",
" X c gray61",
".X c #9E9C9E",
"XX c #9F9D9F",
"oX c gray62",
"OX c #A09EA0",
"+X c #A7A7A7",
"@X c gray66",
"#X c #AAAAAA",
"$X c #AEAEAE",
"%X c #B2B2B2",
"&X c #B4B4B4",
"*X c #B6B6B6",
"=X c gray72",
"-X c #B9B9B9",
/* pixels */
"E.E.].].o.o.N.N.N.n.S.Z.S.Z.N.B. . .[.[.C.A.A.A././.X.X.S.S.O.O.R.R.].].o.o.B.B.N.n.S.Z.S.Z.V.n.O.o.].].C.F.F.C./.^.X.X.C.S.v.v.",
"E.E.].].o.o.N.N.N.N.A.S.Z.S.N.N. .| [. XZ.F.F.F././.X.X.S.S.O.O.E./.].].o.o.N.B.N.N.S.S.Z.S.n.B.o.o.].].A.A.A.F.^.^.v.v.S.S.X.v.",
"].].K.K././.o.o.S.S.N.N.Z.A.o.o.~.(.J.J.G.G.G.G.I.G.X.X.o.X.S.A.].].K.K./.!.o.o.S.S.N.n.S.Z.O.o.(.(.K.z.K.G.K.G.G.G.v.v.v.v.C.S.",
"].'.K.G.E.E.o.o.S.S.N.N.S.S.o.o.~.~.J.J.G.G.T.z.I.G.X.X.X.v.F.S.].].K.z.!.E.o.o.S.S.B.N.S.S.O.o.(.'.B.T.G.K.G.G.G.I.v.+.v.v.S.S.",
"].].E.^.K.K.o.o.N.V.o.o.N.N.o.o.J.I.J.J.A.A.|.|.X.X.G.T.o.X.T.G.[.[.^.!.B.T.} } N.N.o...N.B.o.o.H.H.P.z.F.F.|.[.v.v.T.T.X.X.G.G.",
"].].^.E.G.K.o.O.N.n.o.O.N.N.o.o.I.G.H.H.A.B.|. XX.X.T.z.X.X.I.T.'.[.!.^.R.R.v.+.B.B.o.o.N.B.o.v.H.P.z.H.C.F.|.|. .v.G.G.X.X.G.T.",
"].].K.G.E.^.K.K.O...|.'.B.B.r.r.I.J.[.[./.!.W.G.W.W.G.I.A.Z.T.T.[.'.G.G.!.).G.G.o.o.].`.N.N.w.w.P.P.[.[.(.~.G.G.W.W.G.I.A.A.T.G.",
"].].G.K.^.^.K.K.....|.].N.n.r.r.J.J.[.[.!./.C.G././.G.T.A.Z.G.T.[.[.G.G.!.).G.G.o.O.].`.N.N.y.9.z.T.[.{.~.~.G.G.!.!.G.G.F.A.T.T.",
"].`.!.!.o.o././.~.E.K.P.} v.G.G.G.G.v.v.B.n.#X#XB.K.r.t.].].P.I.[.'./.W.o.o.W.!.!./.G.G.o.o.I.G.K.K.o.O.N.n.+X#XG.G.9.8.].`.I.I.",
"].`./.!.o.o././.^.E.z.K.+.v.G.G.G.G.v.Z C C S S J c.r.t.|.].I.K.'.[.W./.o.X.!.!././.z.I.o.o.G.I.K.c.o.O.n.N.#X#XG.I.s.w.]. XI.I.",
"/./.j.j.{ { X.X.B.z.(.~.^.^.).^.S.S.B.N N N N C Z +.|.].K.K.O.O.W./.k.k.{ { o.o.I.G.!.!.^.^.^.^.S.S.N.N.A.A...O.v.X.{.[.z.K.o.o.",
"R./.j.j.{ { v.X.~.R.(./.^.^.^.^.S.S.B.B N N N N B +.'.'.H.K.O.O.W.W.k.k.} } o.o.I.T.!.!.^.^.^.^.S.A.N.N.Z.A.O...X.X.{.`.K.z.o.o.",
"j.z.a.w.} } } } r.r.^.^.r.a.+.v.Z B B -X-X-X-X=X=XB N S K.K.Z.S.k.k.p.r.{ { } } w.w././.e.w.O.O.S.S.S.S.......O.K.K.K.K.T.T.S.S.",
"j.z.a.a.} } } } a.a.).^.r.r.v.v.B B B =X-X-X-X=X=XB B S K.K.S.S.k.G.p.p.} } } } s.w././.w.w.v.X.S.S.F.S.v.v.O.O.K.T.K.K.T.z.S.S.",
"6.5.2.5.*.@.^ ' 2.5.2.2.*.*.*.*.N N N =X=X=X=X=X=XB B B 5.5.5.5.3.5.5.5.*.@.^ ^ 2.5.5.2.;.%.%.;.%.%.^ ] ) ^ Q ) ^ ^ 5.5.5.5.5.2.",
"5.2.3.5.*.*.^ ! 2.2.2.2.@.S M m %X=X=XXXXXXXy y y 0.s.3.t t j 5.3.5.3.5.*.*.' ^ 2.2.3.3.E %.;.%.%.%.Q Q ~ ^ Q ^ ~ ) ,.8.2.2.5.5.",
"Z.S.Z.S.v.o.OXOXXXXXXXXX!.R B B %X-X-XXXXXoXt t t w.a.3.t t v Z.F.F.S.S.o.o.+XoXXXXXXXXX/./.%.@.~.E.XXXXOXOXOXOXOX.Xv...S.F.S.S.",
"S.S.S.S.o.o.XXXXXXXXXXXX(.R B B %X-X-XXXXXoXr t t a.y.3.r t v Z.F.F.S.S.X...|..XXXXXXXXX/./.%.%.~.~.XXXXOXOXOXOX.XOX} } F.F.Z.S.",
"O.o.E.^./.E.E.E.!.(.G.G.G.I B B %X-X-Xt y r !.W.!.t t t t t c O.o.o.E.!.E.E./.!./.E.z.T.G.T.%.%.|.'.^.~.E.K.!.!.^.~.~.~.^.^.O.o.",
"O.o.^.E.E.!.E./.!.(.G.G.G.T B B %X-X-Xt t y W.!.E.t t t t t c o.X.o./.!.E.!.E.!.!.E.K.K.G.I.%.@.'.'.E.^.N.L.E.!.~.~.~.R.^.^.o.o.",
"/./.H.K.K.K.E.E.G.G.G.G./.I C M $X-X&Xy y p /.!.r.p j j a a S K./.!.I.z.K.c.E./.G.K.c.G.!.!.;.%.|.'.L.L.e.r.^.^.e.e.!.E.o.O.z.K.",
"E.E.c.K.K.c.!.!.G.T.T.G.(.I C M `. XXXB B B !.!.r.r.E.!.o.v.K.K./.R.I.K.K.K.E.E.K.K.T.K.!.!.%.%.{.|.G.L.r.r.!.^.8.w.!./.o. .G.G.",
"B.R.E./.E.E.K.K.G.G.A.A.w.H C C `. XXXB N N w.w.K.K.K.K.~ ~ /.!.c.T.E.E./.!.G.G.K.K.Z.S.w.p.@.@.|.'.a.t.G.K.r.r.G.G.G.T.^ ~ _./.",
"T.P.!./.E.E.G.K.G.G.A.A.w.H M C `.oXXXB B B e.e.K.K.K.K.~ ~ /.!.c.G.E./.E.E.G.K.c.K.Z.Z.w.a.;.*.|.{.8.t.G.K.r.t.G.T.G.T.~ ^ /./.",
"z.z.z.P.I.G.I.E.(./.B.F.~.I C C `.oXoXB B B G.T.E.!.G.T.w.a.r.r.K.G.G.G.I.K.G.G.W./.A.A.W./.*.@././.B.B.F.F.G.G././.T.K.w.e.a.r.",
"H.T.T.G.G.G.G.B.(./.B.F.(.R C M `.oXoXB B B G.G.!.!.K.K.w.w.r.r.T.G.K.T.G.I.I.G.W.W.A.A././.@.*.~.(.B.B.F.F.B.G./.!.G.K.w.e.r.r.",
"E.~.(.(.7.e./.W.Z.F.F.F.E.I C M I./.!.B B B !.E.E.8.2.,.W E 8.!.W.E./.!.8.w.E.3.b b B.A.!./.*.*.~.~.F.Z.E.I.E.W.!./.G.c.T.G.!./.",
"~././.~.e.a././.F.F.V.F.(.I M C 9.e.e.B B N W././.C M m y y B !.W.E.E.!.y.r./.f * * b.A./.W.@.@.~.~.F.B.I.k./.E./.!.G.T.c.G./.!.",
"p.p.a.0.B.B.B.B.F.Z././.`.@.C C 9.e.y.C M C /./.r.M M N r t n w.w.w.w.y.B.N.N.e * * k.W. X|.@.@.p.9.B.B.B.B././.a.a.G.G.B.T.p.p.",
"q.p.0.a.C.B.B.B.F.F.(.(.{.G d d 8.s.w.f.f.j.;.;.T h.h.w.t t n a.w.y.w.9.~ c c c d d B Z G |.;.;.s.p.B.B.B.B././.a.s.G.G.~.R.s.9.",
"G.^.' ' ! ! ' ! ' ^ 3.3.@.k t t 8.s.w..XXX.XC C C .XoX_.t t c ^ T.I.^ ) w % & v I J < * * @.:.:.@.:.^ ^ ^ ^ ' ! 5.5.2.9.^ ^ ' ' ",
"G.G.' ' ' ' ' ' ' ' 3.9.%.k t t 8.w.s..X XXXC M M .XoX_.t t s ~ T.T.) ^ w * = c I I < * = ;.:.:.:.:.' ' ' ' ' ' 9.5.2.9.' ' ' ' ",
"E.~.'.'.o.o.N.N.B.B.S.Z.S.+.] [ M M M z.c.G.T.K.K.J J K | } _ o.E.3.g j 7 3 3 p j j O X X S.B.n.O.o.].].F.F.A.C.).!.v. .S.S. .v.",
"E.^.'.|. .o.N.N.N.V.Z.Z.A.Z.N.N.t t y y.y.r.|..X.Xt t a S.S.o.o.E.I * * 3 8 5 q y y X     Z.B.B.o.o.].].F.F.F.A./.!. . .S.S. . .",
"'.'.G.K.~.E.O...S.S.N.n.S.A.O...p t t 8.a.r.OXOX.Xy t a v.O.S.S.`.E * * 1 9 8 r t y X     Z.X.O.(.(.K.z.G.G.G.G.J.G.+.v.v.v.S.A.",
"'.'.G.K.E.~...O.F.S.N.N.Z.A.....K.K.f.d d f z c j h.[ [ o.O.{ 2 6 9 r r n G S 3.y.f.r 3 3 @ + + (.'.B.T.G.G.G.G.G.G.v.v. .v.A.A.",
"{.{.^.E.G.P.....N.N.O.O.N.N.v...K.K.K.t t t t t y v.K.K.o.o.2.* * 3 y y M I J a.c.c.t 7 6       H.H.K.P.F.C.|.'.v.v.I.T. . .G.G.",
"'.'.^.W.K.K...O.N.N. .O.N.N.v...K.K.K.t t y t t t o.K.K.o.o.2.* * 3 y y C I I w.c.c.t 6 6       P.H.z.P.A.F.[.[. .v.G.G. .v.G.T.",
"].].G.I.~.~.P.G. .O.'.'.N.N.e.t.K.K.'.]./.E.K.K.E./.K.s.* * > 9 9 0 y y s.#X+XS 9 6 * * *       z.z.{.{.~.~.K.z.W.W.G.I.A.A.T.I.",
"].'.L.G.~.E.P.P.....|.'.N.N.r.t.K.K.|.].E.E.G.K.E./.K.y.* = > 8 8 9 t t s.+X+XD 6 9 * * *       T.P.|.{.~.!.K.K././.G.G.A.F.I.T.",
"].].E.^...../.~.^.~.K.G.v...K.K.K.K.o.o.n.N.#X#XG.T.r.-.* * > 6 8 9 t y y.#X+XD 8 8 : * *       R.B.o.o.N.N.#X+XG.G.e.7.[.'.I.I.",
"].].E.~.....^.^.^.^.G.K.....K.K.K.K.O.O.n.n.+X#XG.G.r.-.* * 6 I I ,.H.G.D 8 9 > * % * * % 9 6 9 X     v.n.B.@X#XG.G.e.p.[. XI.I.",
"~.W.l.l.{ } O...K.K.~.^.^.^.^.~.Z.Z.V.N.S.A.O.o.o.o.].R.* * 6 I I ,.c.c.A 8 8 > * * % * % 6 6 9 X X   B.Z.Z.o.o.v. .[.[.G.z.X.X.",
"W.W.l.l.{ { O.v.K.K.^.^.^.^.^.^.Z.S.N.N.S.S.o.o.o.o. XR.* * 6 T I ,.c.j.A 8 8 > * * % * % 9 6 5       N.A.A.o.o.v.v.|.[.G.J.X.X.",
"l.l.a.a.{ } { { t.t.^.^.t.t...O.D.D.S.S.O.o.o.o.K.G.T.y.* * 6 T I M y y 3 * * 3 6 6 q t t I I I       A.o.o.o.o.K.K.K.K.I.I.F.F.",
"l.l.t.y.} } } } a.r.^.^.t.t.O.O.D.F.F.S.O.O.O.O.T.G.K.f.* & 6 T Y M t t 3 * * 3 8 8 t t t I I I       A.v.v.v.o.I.I.K.T.I.G.A.A.",
"5.4.5.5.%.%.^ ^ 4.4.4.4.*.=.=.=.%.%.~ ^ ^ ) ^ ~ ' ~ 2.@.> > 9 F D n t p 5 * * 3 6 6 q r t H D H X X o ^ ^ ) ~ ~ ^ ) 2.2.2.6.5.5.",
"4.4.5.6.%.%.~ ~ 4.1.4.4.W W =.%.%.%.^ ^ ^ ^ ~ ~ ^ ' 5.5.2.2.H     * 7 6 < * * X                 @.@.' ^ ~ ~ ~ ~ ^ ^ 3.8.5.2.5.2.",
"Z.S.Z.F.....XXXXXXXXXXXX~./.*.*.~.!.OXOXOXOXOXOXOXOX} +.S.S._     $ 8 9 > * * o                 /.W.OXOXOXOXOXOXOXOXo.o.Z.A.A.A.",
"S.S.D.D...v.XXXXXXXXXXXX^.^.%.%.!.!.OXOX.XOXOXOXOX.X} v.S.F.} : - ; 3 < > # # > < 3 < < , , # # W./.OXOXoXoXOXoXOXXXX.X.A.A.A.A.",
"..O.~.^.^.E.^.E.~.E.G.G.P.P.%.%.[.[.!.(.K.G.!.!.!.!.!.!.!.!.v.v.O.x           %.^.^.G.K.I.K.%.%.{.'.W.W.G.G.!././.W.!.W./.!.v.v.",
"O...^.^.E.^.E.^.E.^.K.P.P.P.%.%. X[.!.(.z.G.!.!.W.!.!.!.!.!.v.b.o.x           *.^.E.K.K.K.I.%.E [.[.W./.G.G.W.!.W.!./././.!.X.v.",
"~.~.G.K.G.K.^.W.B.K.K.K.~.^.*.&.[.[.K.z.q.t.~.~.e.e.).!.v.} G.G.E.5.p p p p f y.K.z.K.K./.!.*.%.{.[.I.G.9.w./.!.w.w.!.!.X.o.G.G.",
"^.E.K.G.K.G.W.E.R.K.K.K.~.^.&.&.[.[.z.K.t.t.~.^.q.e._._.v.v.G.G.E.E.G.K.K.K.E.^.K.K.K.K./.E.%.%.{.{.G.G.w.w.!.!.w.8./.!.X.o.G.T.",
"G.K.~.^.^.^.G.G.P.P.Z.Z.r.r.&.&.|.[.p.s.B.R.t.d.G.G.G.G.! ! ^.^.G.K.E.E./.E.c.K.G.K.S.S.r.y.%.%.{.[.p.w.G.I.w.w.I.K.T.K.^ ~ !.!.",
"K.G.E.W.E.W.G.I.P.H.Z.A.t.t.&.E |.[.p.s.H.H.9.9.G.G.G.G.! ! ^.^.G.K.^.E.E.E.G.K.K.K.Z.S.y.r.%.@.{.{.9.w.T.G.w.w.K.K.G.K.~ ~ /./.",
"P.R.G.G.K.K.T.z.~.~.A.F././.@.@.^.^.N.N.Z.D.T.P.^.^.I.I.r.r.r.r.K.G.G.G.I.I.G.G.E.^.Z.S././.%.%.^.^.V.V.F.F.K.G.E./.K.T.e.s.w.w.",
"H.B.T.K.K.K.K.I.~.~.A.A.~./.@.:.^.^.N.M.D.D.l.c.^.~.G.K.r.r.r.r.I.G.K.K.K.K.I.G.^.^.Z.Z././.%.%.^.^.V.N.F.F.N.K.E.E.K.K.w.w.w.w.",
"~.~././.8.r.E.E.B.A.F.A././.@.:.^.^.D.D.N.L.~.~.W.^.K.K.I.K.^.^.E.E.^.^.8.r.~.E.S.Z.S.S.!.!.%.*.^.(.N.F.R.K.~.~.!./.G.K.K.K.!.!.",
"/./.E.E.w.w././.C.A.A.A././.@.@.^.^.D.Z.R.I.~.~.^.^.K.K.K.K.^.^.!.^.^.^.r.t.^.E.Z.S.Z.S./.E.@.*./.^.F.N.K.K.~.~.!.!.K.K.K.I.!.!.",
"p.p.9.9.V.V.V.B.F.C.!./.'.|.@.@.t.r.M.N.N.N.^.^.t.r.L.L.G.P.t.r.r.r.t.t.N.V.V.V.S.S./.E.{.{.;.%.t.t.B.B.N.N.!.^.r.r.G.K.K.K.y.w.",
"t.p.a.a.V.V.B.V.F.A.!./.|.|.@.;.t.t.N.N.N.N.^.~.t.e.L.L.K.T.r.r.r.r.r.r.N.V.V.V.S.S.^.^.{. X%.;.t.p.B.B.N.N.^.^.r.t.K.K.K.K.a.a.",
"T.G.! ' ) ^ ) ) ' ' 7.5.:.@.:.;.>.>.~ Q ] ~ _ ^ 6.6.4.6.) ) ) ) I.T.) ) ) ) ' ^ ) ^ 3.6.%.;.;.%.:.%.) ^ ~ ) ) ) 6.6.5.6.) ) ^ ' ",
"T.G.! ' ) ) ) ' ) ^ 7.9.@.:.:.:.&.W ] ] ) ^ ) ) 8.6.6.6.) ) ) ) T.I.^ ) ) ^ ) ' ) ^ 8.9.;.%.:.:.:.;.) ) ) ) ) ) 8.6.6.6.) ) ' ' "
};
