/* XPM */
static char *_0bb2b3eec004dfecbd4189289b31b88sdkzO4BS0poR2mTB[] = {
/* columns rows colors chars-per-pixel */
"64 64 214 2 ",
"   c #212F18",
".  c #243219",
"X  c #2A3B1E",
"o  c #1A2F3C",
"O  c #1D333E",
"+  c #24393E",
"@  c #344924",
"#  c #354B25",
"$  c #3B532A",
"%  c #354C36",
"&  c #4A5D2C",
"*  c #4B5F2F",
"=  c #515E32",
"-  c #53612F",
";  c #496733",
":  c #556234",
">  c #59673B",
",  c #59633C",
"<  c #4D7439",
"1  c #5D7D33",
"2  c #51713A",
"3  c #56773B",
"4  c #5E7C39",
"5  c #627E3C",
"6  c #1E3540",
"7  c #1F3840",
"8  c #233A43",
"9  c #273C45",
"0  c #254246",
"q  c #2C4247",
"w  c #26444C",
"e  c #2B434A",
"r  c #2C4B4D",
"t  c #384C44",
"y  c #33454C",
"u  c #264B55",
"i  c #2C4B55",
"p  c #354A51",
"a  c #2C535A",
"s  c #365956",
"d  c #345758",
"f  c #3B635C",
"g  c #355C63",
"h  c #375D66",
"j  c #3E6C65",
"k  c #386668",
"l  c #386A77",
"z  c #434A4C",
"x  c #4B4C4B",
"c  c #50504F",
"v  c #474F52",
"b  c #495459",
"n  c #545454",
"m  c #575857",
"M  c #59565A",
"N  c #53595B",
"B  c #5B5B5C",
"V  c #5C6940",
"C  c #586C4C",
"Z  c #5B7542",
"A  c #5F615F",
"S  c #4E7359",
"D  c #637C42",
"F  c #617548",
"G  c #60615F",
"H  c #647950",
"J  c #4D5A62",
"K  c #5A5C63",
"L  c #615D63",
"P  c #615B6A",
"I  c #596569",
"U  c #457162",
"Y  c #4C7664",
"T  c #457369",
"R  c #4C7B68",
"E  c #527E67",
"W  c #52726F",
"Q  c #436F79",
"!  c #487776",
"~  c #636463",
"^  c #666965",
"/  c #686A67",
"(  c #66646A",
")  c #66686C",
"_  c #6B6C6B",
"`  c #6D716D",
"'  c #71706F",
"]  c #6B6673",
"[  c #6D6D72",
"{  c #726E72",
"}  c #6A7174",
"|  c #747475",
" . c #767876",
".. c #767478",
"X. c #79767A",
"o. c #777878",
"O. c #7C7C7C",
"+. c #807F7F",
"@. c #638239",
"#. c #64813D",
"$. c #578C4A",
"%. c #5C924A",
"&. c #578657",
"*. c #568A53",
"=. c #668344",
"-. c #72874B",
";. c #74894C",
":. c #63964B",
">. c #799346",
",. c #7B934D",
"<. c #668A55",
"1. c #758853",
"2. c #798C55",
"3. c #669A57",
"4. c #7D9354",
"5. c #6DA24D",
"6. c #73A64D",
"7. c #6BA256",
"8. c #73A451",
"9. c #73AA51",
"0. c #77AC5B",
"q. c #7DB458",
"w. c #578769",
"e. c #5B8C6C",
"r. c #5F9268",
"t. c #4F837E",
"y. c #588774",
"u. c #5F9073",
"i. c #659766",
"p. c #679A6B",
"a. c #6B9C6D",
"s. c #618E79",
"d. c #7F807F",
"f. c #679777",
"g. c #65937B",
"h. c #799D7C",
"j. c #6BA06A",
"k. c #74A56C",
"l. c #7AA679",
"z. c #829A54",
"x. c #819658",
"c. c #829758",
"v. c #83BC55",
"b. c #81B75D",
"n. c #84BB5C",
"m. c #80807F",
"M. c #87BB67",
"N. c #83AD7D",
"B. c #83B976",
"V. c #88C45D",
"C. c #8BC36A",
"Z. c #95CB6E",
"A. c #487986",
"S. c #687A81",
"D. c #7B7D81",
"F. c #817E82",
"G. c #817D8D",
"H. c #568786",
"J. c #53878D",
"K. c #7F8080",
"L. c #679784",
"P. c #739A81",
"I. c #699191",
"U. c #79A584",
"Y. c #828383",
"T. c #858585",
"R. c #868886",
"E. c #85838A",
"W. c #8A868A",
"Q. c #898989",
"!. c #8B8A8B",
"~. c #8C8B8C",
"^. c #8D8D8D",
"/. c #8F908F",
"(. c #8C8695",
"). c #8E8B92",
"_. c #918E93",
"`. c #938D9B",
"'. c #919191",
"]. c #939293",
"[. c #969696",
"{. c #96929B",
"}. c #9A969A",
"|. c #999999",
" X c #9C9A9D",
".X c #84AD88",
"XX c #8CB58D",
"oX c #91AF91",
"OX c #8DB492",
"+X c #95B899",
"@X c #9F9DA0",
"#X c #A19EA2",
"$X c #A59CAB",
"%X c #A89DB0",
"&X c #8BAAA6",
"*X c #90AEAC",
"=X c #98B5AB",
"-X c #9BB7B2",
";X c #A3A2A4",
":X c #A7A4A8",
">X c #A9A6AC",
",X c #ABAAAC",
"<X c #B0ABB6",
"1X c #A2BCB4",
"2X c #B5B3B6",
"3X c #9EC196",
"4X c #AACAAD",
"5X c #ACC6BA",
"6X c #B6CFC9",
"7X c #BCD1CA",
"8X c #C4DCCE",
"9X c #C7DCD4",
"0X c #CAE0D2",
"qX c #D1E5DE",
/* pixels */
"/ B Y.X.@X X X@X| ' #X X X X|.#XX. .#X}. X X}.#XY.W.~.W.~.].n m :X#X|.|.;X;X X X].]. X@X|.|.[.[.[.|.[.[.[. X@X@X].].].].'.O.B A ",
"/ M Y.o.;X#X#X:Xo.| ;X#X#X X#X;XO.O.;X#X#X#X#X;XW.~.W.W.~.'.c B  X[.].].[.|.|.|.Q.^.[.[.].]./.^.Q.Q.~.].^.^.^.^.R.R.!.!.Q. .B ~ ",
"| _ Y.O.o.o.o.+.B m O.o.T.T.T.W.| { Q.Q.X.| T.W.O.O.~.~.o.T.c B #X'.R.Y.R.R.m.R.| O.Q.T.R.R.R.^._ | O.d.+.O.o.| d.O.O.O. .' A ~ ",
"^ B Y.O.T.T.Y.~.B m Y.O.~.).W.~.{ | ].].O.O.^.^.Y.Y.~./.O.T.m B ;X[.!.R.~.!.R.!.| O.Q.!.~.Q.Q.Q.'  .m.d.O.O.o.| O.O.d.O.O.| B ~ ",
":X>Xo.T.m B B m +.o.+.+.+.O.W.~.+.Y.G G +.+.+.m.m n O.m.m.T.n m ].T.|  .O. . . .T.T.o.o.O.d.Y.Y.O.T.!.T.T.O.m.+.m. .| ' / ~ B L ",
";X;Xd.^.m B m n Y.o.F.+.+.X.~.~.O.T.~ ~ T.Y.Y.~.~ M T.Y.m.T.n B }.!.| | O.O.+.m.T.Y.O.O.O.O.O.o.O.m.m.+.O.O.O.Y.O.O.O.O._ ~ m B ",
"| | M n [.^.>X2Xx x Y.O.O.+.+.+.m.O.m.R.m L B B ~ L O.| | O.n B [.!.' | m.m.R.!.+.+.O.O. .o.O.O.| o.o.o.O.O.m.m.Y.Y.Q.T.' / L G ",
"| | M n ].W.;X,Xz z ~.Y.+.+.+.+.m.m.m.T.B B ~ ~ B n | o.O.O.n M  XR.' ' m.T.Q.Q.O.+.+.m.o.| | |  .O.o.o.| O.m.m.O.Y.~.Q._ ~ B G ",
";X>X+.T.' { O.| ].|.n M X.{ m.m.| | Y.O. .F.L B W.W.| X./ _ m B [.^.|  .o.o.o.o.o.o.O.| ~.!.Q.Q.Q.Q.T.!.^.O.' ' O.T.!.Q.' _ B B ",
"#X;XO.Y.o.o.m.m.!.].M M X.| m.T.| | F.m.o.D.m m T.Y.O.Y.~ _ m B [.^. .O.| o.o.O.O.o.o.| W.T.T.T.T.Y.T.T.Y.O.o.| O.m.Y.T.' ^ B L ",
"~.W.{ ..X.o.| | | ' +.+.+.T.^ G '.^.O.Y.| { ].}.n ~ n x O.m.m M ].!.| O.o.O.o.o.m.o.' ' +.O.+.O. .| o.o.' | +.+.o.| o.o./ G B ~ ",
"_._...X.X.X.X.o.+...{ ..m.T./ ^ '.'.O.m.X.| _.[.M ~ m n m.Y.n B [.!.| O.O.O.o. .m.O.o.| +.+.+.+.O.| O.o.| o.Y.m.O.O.O.o._ ~ L ~ ",
"..| ^ ^ ^ ^ ^ ^ ^ ^ ..X.^ G _ _ ~ G  .o.~ / | | _ ' n m B ~ m B [.T.| | | | | | ' _ _ / ' _ ' _ ' | | | _ _ ~ L _ _ | | ' _ L G ",
"+.O._ _ ' ' ' _ _ / +.+.' ' ` ` _ _ O.O._ _ O.d._ ' n x N b z z I A N ^ ` ` [ _ / / / / / ( ~ ^ _ _ ' _ ' / G ~ / _ ' ' _ / L G ",
"~ B G ~ n M m n G G G G n n n n n n G A ~ ~ G B A ~ ~ y 8 7 9 O 8 8 8 N B B B m B B B L M B B B m B m B G G L G L B G B G L m G ",
"B m m B x x M m B B G G m m m B n n B M ~ ~ B M m m m q 7 7 7 + + O O v n m m B m n n M m M B G n n m m m B L B B B m m B m n m ",
",X:X:X:X>X2XB B }.].o.+.L ~ M n ^.T.].|.c x I J I I I h d g f f f f k I I W I I O.:X:X:X#XT.B m 2X,X:X:X X X'.]. X:X:X;X[. X,X;X",
"#X#X#X#X X:XB m /.!.| o.B ~ m n Y.o.!.].n z p 9 9 9 w k Q ! ! y.t.! l d r r O O N ^././.!.o.B M >X X].[.'.].^.!.~.~.'.'.R.!.~.'.",
"+.X.o.o.R.!./ / +.O.+.T./ | m c ].!.{ | B N p 9 0 0 0 k T ! y.y.w.! ! s r i 0 0 b  .O.O._ ^ m m |.!.d.!.O.O.O.O. . .'  .|  . . .",
"Y.O.+.o.!.].~ G T.Y.+.Y./ _ n c ]./.| p 9 u Q A.A.! E y.u.u.p.p.p.r.p.i.e.r.f.f.Y w 9 I / A B m  X].R.Q.O.m.O.m.o.o.o.O. .O. .O.",
"^.~.~.^. .O./.}.m m m.+.o.+.m m X. .M 9 8 w A.A.H.y.t.u.s.s.a.a.a.i.j.i.f.p.L.L.R O 8 I o._ B G  X/.d.d.O.m.m.m.+.d.Q.T. . .o.O.",
"_.W.~.^.d.O.Q.].B G !.T.X.+.n c } ) b y w i A.J.H.L.I.h.f.h.a.a.a.j.7.j.j.a.l.U.E 0 w J _ I L B ;X'.m.m. .d.o.o.m.T.Q.!.o.o.O.o.",
"Y.O.O.O.+.m.O.T.c m B G c n ~ M } r 9 A.A.A.H.H.&X8X9X1X1X+XN.h.k.7.0.M.C.C.OXOXP.T T d 9 8 B M ;X[.R.R.` | ' | O.+.O.m.m.o.o.o.",
"Y.O.+.m.O.m.O.Q.x x B L c c / M I 9 9 A.J.A.H.L.*XqXqX5X1X=XP.l.l.k.0.C.C.Z.OXOXP.T R r O + G m :X'.~./.` '  .' m.m.m.m.m.m.| m.",
"Y.O.Y.O.+.Y.~ B 2X,X~.'._. Xc x } i i A.J.J.-X*X5X6X6X3XZ.N.C C <.M.M.M.M.n.4X5X&Xj U d w r m m  X!. . .+.+.+.O. . .|  .o.O.o.o.",
"T.F.+.F.m.T.~ G :X@XQ.!.~.[.n x S.h g H.J.I.9XqX6X1X1XB.V.6.# @ 2 C.Z.b.0.q.0XqX-Xj j f s s G B  X^.O.O.Y.m.O.Y.+.O.O.O.O.o.o.o.",
"X...| X./ G '.'. .X.+.+.{ X.n c I g g A.J.I.7XqX7X-X1XC.v.6.@ @ 2 Z.Z.b.0.0.0XqX-XU T s s s G G [.~.!.Q.!.T.o.Y.T.T.|  .^.m.' | ",
"F...X.+./ ~ '.'.O.F.+.F.| ) 9 8 Q y.y.L.L.I.1X5X3XC.M.%.1 ; X X # 2 2 8.b.v.l.B..XP.U.w.U U q 9 I /.Q.Q.!.T.O.+.~.T. .X.^.Y.' | ",
"_ / / ^ O.O.~ G  .| | | F.[ + o J g.g.L.L.L.=X-XXXV.q.1 $ $ . . @ $ $ 4.n.n.3.3.k.oX+Xf.Y Y O O p d.^ _ | | ' ' ' / / ' / / ( / ",
"| _ _ _ O.O./ _ O.X.O.X.T.} o o U u.g.L.L.U.OXOXB.v.V.3 & $ .   X $ $ 8.n.n.7.7.k..X.Xs.Y Y O O y | ~ / ' ' ' _ ( / / / G / ~ ( ",
"~ L ~ K K ~ L G L L L G n z + o g H.H.L.L.L.3.:.9.V.V.2 $ #     . @ # 8.n.V.0.9.3.e.w.R T R O O 9 B B ~ G L B G B G B M B B B B ",
"_ ~ ~ / ~ ~ ~ / ~ ~ ~ / M v 8 o g ! t.g.L.u.:.%.6.V.V.2 $ @     . @ # 8.n.M.9.9.3.e.w.w.T T + + 9 B G B G G L ~ L B B B G B L G ",
"_.~. X#XD =.2.2.2.2.c.4.4.H + O g l ! y.g.p.:.:.6.q.v.< @ @ .   X $ $ 5.n.n.5.5.7.j.j.w.j ! O 6 r o.#X X X|. X XR.W.~.).W.].c M ",
"!.Y. X#X1 4 2.2.1.1.4.2.4.H + O u h k w.e.e.3.3.5.9.6.; @ @ . . @ $ * 6.q.q.:.%.7.B.l.r.j j 6 6 r o.;X@X;X#X X:XW.^.W.W.W.[.c B ",
"|.#XO.d.`.`.4 5 4.4.1.1.4.H + O u h k w.r.r.3.3.7.5.6.; & @ . . @ ; ; 5.q.q.:.:.j.B.q.w.j j 7 7 y { W.E.X.o.T.T.O.O.!.~.O.Y.n B ",
" X}.O.d.^.`.#.D c.c.2.2.4.2.V 2 J w r h..XU.r.3.3.7.3.8.8.:.# @ ; 9.0.5.6.5..X.Xl.u.u.f u 0 d.K.) | ].].O.O.!.~.Y.Y.!.!.O.R.m M ",
" X}.W._.m.E.5 D 2.2.F D 2.2.D 5 J 9 w P.OX.Xr.*.%.3.7.0.v.8.$ # < q.V.9.5.5.XXXXU.w.w.s + 8 ~.~.F.Y.~ ~ m.d.O.Y.m m +.+.+.T.n B ",
"}.}.~.~.D.E.@.4 2.2.4 4 2.2.=.@.J 9 w P.OX.Xp.3.r.7.7.0.v.6.$ @ < q.V.9.5.5.XX+XU.y.y.f 7 8 ~.~.O.Y.~ ~ R.T.Y.!.G M T.m.+.T.n B ",
" X XO.F.^.'.E.(.4 4 %X$X1.;.[ ' J O O k l J.6X7XOX&.$.$.%.$.< < @.$.%.l.XXXX8X0X*Xg g w O O O.O.O.O.Y.!.m B A B ~ B ..| | o.n B ",
" X XO.O._.`.O.D.1 1 $X$X;.;.[ _ J 8 8 k l A.6X9X+X&.&.$.$.$.< < $.$.%.U.XXOX9X0X&Xa a w 8 7 d.m.m.m.O.T.M A G ~ B m O.| O.+.n m ",
" X}.~._.1 1 _._.`.`.O.Y.5 5 E.T.I J % i a h I.&Xg.&.Y *.*.*.E &.&.r.r.a.h.U.*X-XI.8 i 9 b v m.m.| | +.+.X.+.G B !.T...X./ _ m M ",
" X XW.`.5 5 `._.'._.O.F.1 1 E.m.G.D.3 8 6 6 i a k U T w.R Y s.s.u.L.L.u.e.w.! Q k o 6 v  .| T.T.{ | +.+.| +.M m T.T.O.m./ _ m B ",
"W.~...F., F 5 5 E.D.'.~.`.`.~.~.4.4.1.% 8 8 u a f j U R E w.u.y.g.g.g.e.w.w.W Q h 8 9 K T.R./ G ]._.+.+.| { _. Xm L c x +.+.n B ",
"_._.X.F.#.F =.5 W.Y.!.^.~.'._.`.4.4.1.C C S w 9 r r r f f U f.p.u.! ! s s s i i d K J ] m.m./ G ]./.+.m.X...~.[.B ~ B c +.+.m M ",
"O.o.' { 5 F F > | _ ^.'./ ' 5 5 c.c.c.c.Z Z 8 O O 8 8 i s f i.p.w.k k w O 8 O O p (  .X.^ ^ _ _ ~ ~  . .^ ^ | { / ' n m L G B B ",
"F.F.' ..5 F F D | _ '.'.` | 5 =.z.c.c.c.D Z % + 9 q e i a f r.r.R k g e e w 9 9 v _ O.+._ ' _ _ ` _ O.O._ _ O.+._ ' n m G ~ n m ",
"_ / / _ L P > > ] / ~ ~ B L P L L P = = c V = V : : _ q O o O o O o o N n n M n G ~ B L n n n m n n L L G L G L G G ~ ( ~ ~ ~ ~ ",
"] P ( P L L - - ~ G ~ ~ M B L L M M & = - = = = = & ] q O O O O o o o v x x M m M B L G n m M B c c B M ~ ~ B B m m m m m m m m ",
"z.z.z.z.5 5 <X>X>X:X>X,X_.}.M B  X/.<X>X<X>X:X>X>X<X@.% t t t t J b b '.;X2Xm A [.].X.+.L / M c ^.R.].|.c c }.!.,X>X>X:X:X>X:X:X",
"c.c.,.z.4 1 >X#X#X;X;X;X!.].B M ).T.;X#X;X#X#X;X;X%X1 #.,.4.z.c.#X X#X#X X,Xm B ].~.{ O.M ~ M n m.O.^.[.c c _.W.#X@X X#X#X X X X",
"D 4 `.(.`._.R.!.!.T.O.O.Y.T.B M #X#XQ.Q.O.O.!.W.Q.!.).).).`.4 D D.X. . .T.!./ / d.O.m.Y._ | m c /./.' | ~ ~ | { O.| T.T.o.o.T.T.",
"5 1 _.~.~.~.~.~.!.^.T.m.K.!.M M #X X~.~.Y.Y.~.~./.).~.~.).`.1 =.D.O.O.O.Q.].~ G T.Y.m.m.^ _ m c ].].o.O.B B X.{ m.O.!.^.T.m.~.^.",
"_._.F.K.K.d.~.).K.K.Y.Y.^.].B M ;X XO.Y._ ^ ^.].^ _ /._.@.4 (.E.).!.!.).O.O._.}.m m Y.Y.O.O.n n | X.B B O.O._.~.!.^.o.Y.B m m.o.",
"_._.O.Y.Y.O.^.^.K.Y.Y.Y._.[.M M ;X Xd.E.` ` ].]._ ^ ].).#.#.E.K.).~.~.^.O.O.Q.'.G B T.T.O.F.n c | | M M X.' !.).Q.^.Y.!.B m Y.m.",
"Y.Y.^.^.^.^.K.K.K.E.,.,._ ` L M ;X X^ _ R.R.^ _ R.R.K.E.= = `./.Y.O.O.O.+.O.O.T.n n B G c n ~ m ,X>Xm.Y.!./.O.X.O.T.m m !.T.m.+.",
"Y.O.^.~.~.^.K.Y.K.D.4.4._ ' B M ;X;X) _ E.E._ _ K.K.K.!.- - {./.Y.O.Y.O.m.O.m.Q.x x B L c c / m ;X#X .O.~.~.m.+.O.m.B B T.m.+.+.",
"Y.K.K.K.Y.K.Y.F.).).,.;.`.[.B B ].).;.;.4.,.E.E.^./.d.Y.} } ` ` Y.O.F.m.m.Y.~ B ,X,X'._._. Xn x ;X;Xo.O.O.O.+.O.~.[.B G o.{ +.+.",
"Y.K.Y.d.Y.Y.Y.O.).`.,.,.).].B M ].).-.1.,.,.K.K.^.^.Y.Y.` ` _ ` T.Y.F.F.m.T.~ G :X;XW.!.^.[.c x >X;XO.O.O.O.Y.O.W._.L G o. .+.+.",
"/.^./.]._ ^ /._.>.,.2.,.).].M M ].).,.4.E.d.).^.!.^.Y.Y.R.Y.]./.X.| X.X.^ ~ ].'.X.o.O.+.{ | m c ~.!.| | m.m.| | ~._.c c O.X.X.| ",
"]././.].) _ `.`.,.4.4.>.(._.M K [.).4.4.E.Y.).!.).].d.d.Y.Y.).'.O.X.X.X.^ ~ ]._.O.F.+.F.| O.m c [._.X.| Y.T.| | _.|.c n +.O.X.X.",
"` _ _ } 2.2.;.;.4.,.`.W. X#XM L ` _ ;.1.;.;._./.^ ` Y.Y.Y.T._ ` ` ^ ^ ~ O.O.~ A X.| | | Y.R.n n | o.~ / / ~ o.O.~ / n M n n _ ^ ",
"' ` | } 4.2.4.2.c.z.`._.#X>XM G | | 4.4.4.2.`.}.` ` Q.R.W.^.' o.| _ _ _ X.O._ / X.O.O.X.T.^.n c F.F.' ` ` ) O.O._ | n M n n ` _ ",
"!.).: > , , , , = = ( ~ M M L ( L P , , , , , - ] ^ ^ ) : , > > ~ ~ L A L G G G B K B ~ c c B B n n n n ~ B B B L G ~ ~ ~ ~ G L ",
"Y.~.> > V V V V V V ' ' L L ~ ~ ~ ( > V V > > > [ _ _ [ > V V > _ ~ / ^ ~ ~ / ~ / / ~ _ B B B L B B B B / ~ _ _ ~ ~ ~ / ~ / ~ ^ "
};
