/* XPM */
static char *_45214826cab4546ed05daaead949d44O7JdH2Iso3SixPIi[] = {
/* columns rows colors chars-per-pixel */
"64 64 47 1 ",
"  c ",
". c black",
"X c #010101",
"o c #020202",
"O c gray1",
"+ c gray8",
"@ c #151515",
"# c #161616",
"$ c gray9",
"% c gray14",
"& c #252525",
"* c gray15",
"= c #272727",
"- c #282828",
"; c gray16",
": c #2F2F2F",
"> c gray19",
", c #313131",
"< c #323232",
"1 c gray20",
"2 c #343434",
"3 c #353535",
"4 c gray27",
"5 c #464646",
"6 c gray28",
"7 c #484848",
"8 c #555555",
"9 c #565656",
"0 c gray34",
"q c gray44",
"w c #717171",
"e c #727272",
"r c gray49",
"t c #7E7E7E",
"y c gray50",
"u c #808080",
"i c #818181",
"p c gray61",
"a c #9D9D9D",
"s c gray62",
"d c #9F9F9F",
"f c #A7A6A7",
"g c #A7A7A7",
"h c gray66",
"j c gray72",
"k c #B9B9B9",
"l c gray73",
/* pixels */
"                                                                ",
"                                                                ",
"                                                                ",
"                                                                ",
"                76566666                                        ",
"                65566666                                        ",
"                55566666                                        ",
"                66666655                                        ",
"            5757lljljllj5566                                    ",
"            5575ljljljjl6665                                    ",
"            5557jllljjlj6665                                    ",
"            5555jjjljljl7657                                    ",
"        5555ljjjssss2,,,wqww,1,1                                ",
"        5757llllssss,1,1qwww,,1,                                ",
"        7555lljlssss,11,wwww,1,1                                ",
"        5755ljljsssd,,,1wwwe,,1,                                ",
"        6666lljl,,,1    ,1,1,1,1                                ",
"        6666lllj,,1,    1,1,1,1,                                ",
"        6666ljll,1,,    ,1,1,1,1                                ",
"        6665lljj1,12    1,1,1,1,                                ",
"        6665sssp7775                                            ",
"        6666psss6665                                            ",
"        6665ssss6665                                            ",
"        6665psss6667                                            ",
"        7575psss6666                                            ",
"        5757psss6666                                            ",
"        7575psss6666                                            ",
"        5755pfss6666                                            ",
"        7575wwww6666    65561,,1            ####                ",
"        5757wwww6666    66652,1,            ####                ",
"        7575qwww6666    666521,1            ####                ",
"        5757qwww6666    6665,,1,            ####                ",
"        ,1,,wwwwsssd6666sssp,22,        +###0088####            ",
"        1,,,wwwwsssd6666sssf,,,,        #+##8008####            ",
"        2,,,wwwwsssd6656ssss,,,2        ###$8808####            ",
"        ,,1,eeewddds5555ssss,2,,        +###0888+#+#            ",
"            ,,,,wqqwssss,,,,        ####====2111oOoo            ",
"            ,,,,wwwwssss,,1,        ####---=,111oooo            ",
"            ,11,wwwwssss21,1        ####--==1111oooo            ",
"            ,1,1wwwwssss,,1,        +###---=,111oooo            ",
"                ,,1,1,1,        ###+2,220008ytyu-===oooo        ",
"                ,1,1,1,1        ##+#2,2,0008ytyy-===oooo        ",
"                1,1,1,1,        ####22228088yyyy--==oooo        ",
"                ,1,1,1,1        ####22,,0008yttt====oooo        ",
"                            ####=--=,222ffhg====##++oooo        ",
"                            ####--=%,2,2gghf==--####oooo        ",
"                            ####---=,,22hhhf=---####oooo        ",
"                            ####---=222,hhhf----####oooo        ",
"                            ####0808ttut---=#######+=---oooo    ",
"                            ####8080tutt---=#######+=---oooo    ",
"                            ####0800tuut--==+######+====oooo    ",
"                            ####8000uttu====+###+#+#====oooo    ",
"                            ####0808,222###+--==,,,,0080oooo    ",
"                            ####800022,2###+----2,220008oooo    ",
"                            ####0880222,####----22,,0000oooo    ",
"                            ####8088,,2,###+----,2220008oooo    ",
"                                oooo----####oooooooooooo        ",
"                                oooo----###+oooooooooooo        ",
"                                oooo----####oooooooooooo        ",
"                                oooo=--=####oooooooooooo        ",
"                                    ooooooOo                    ",
"                                    oooooooo                    ",
"                                    oooooooo                    ",
"                                    oooooooo                    "
};
