/* XPM */
static char *b005f304dea4451ba287c824e8d41710T1Yne71eBrwvkZ7F[] = {
/* columns rows colors chars-per-pixel */
"64 64 61 1 ",
"  c #02110D",
". c #03120E",
"X c #041410",
"o c #041612",
"O c #041712",
"+ c #051712",
"@ c #061814",
"# c #061914",
"$ c #1F3A33",
"% c #203D36",
"& c #223F38",
"* c #24433B",
"= c #224548",
"- c #264B4C",
"; c #2F584E",
": c #2F5754",
"> c #335C52",
", c #325C57",
"< c #356257",
"1 c #36615B",
"2 c #356458",
"3 c #376459",
"4 c #35645B",
"5 c #38675B",
"6 c #3A675F",
"7 c #3A6B5F",
"8 c #3D6B62",
"9 c #3B6C60",
"0 c #427367",
"q c #487B6D",
"w c #508775",
"e c #AAA46E",
"r c #ACA770",
"t c #ADA871",
"y c #ADA971",
"u c #AEAA73",
"i c #B0AA75",
"p c #B0AE75",
"a c #B1AE76",
"s c #B3AE78",
"d c #B5AF79",
"f c #B7B27A",
"g c #B8B47C",
"h c #B9B77D",
"j c #99C693",
"k c #BFC187",
"l c #C0C287",
"z c #C6C28D",
"x c #DCD9A5",
"c c #DFDDA7",
"v c #E0DFA8",
"b c #E0E0AA",
"n c #E2E0AC",
"m c #E3E1AD",
"M c #E5E4AF",
"N c #E5E4B1",
"B c #E9E6B1",
"V c #EBECB4",
"C c #EBEDB4",
"Z c #F3F8BE",
"A c #F9F9C5",
/* pixels */
"qqqqqqqqqqqq000000qqqqqqqqqqqqqqqqqqqqqqqqqqqqqqqqqqqqqq0000008,",
"qqqqqqqqqqqq000000qqqqqqqqqqqqqqqqqqqqqqqqqqqqqqqqqqqqqq00000088",
"qq000000000000000000000000000000000000000000000000000000788888,,",
"qq00000000000000000000000000000000000000000000000000000074,88014",
"qq00jjjjjj========44jjjjhhii::====::iihhjjjj4413------jjjjjj88,,",
"qq00jjjjjj========44jjjjhhuu::====::iihhjjjj4441------jjjjjj181,",
"qq00jjjj==--::::::::4444AAhhii::::iihhAA4444::::::--====jjjj8811",
"qq00jjjj==--::::::::4444AAhhii::::iihhAA4444::::::--====jjjj1811",
"qq00jj==--::yyyyrr00000044AAhhhhhhhhAA44000000aspppp::--==jj88,1",
"qq00jj==--::yyyyuu00000044AAhhhhhhhhAA44000000fspppp::--==jj8,11",
"0000==----yyssssssssuyww0044AAAAAAAA4400wwllllllkkppua::--==8811",
"0000==----yysssssssdyyww0044AAAAAAAA4400wwllllllllpppa::--==,811",
"0000==--eessssCCVVNmvNssww004444444400wwllmNMMMMmnklaaaa::--8,,8",
"0000==--eessssCCVCvnvvsdww004444444400wwllNNMMMMnnlluaua:>--88,,",
"0000==--eessCCAAAAAAAAnnssww00000000wwllNNAAAAAAAAmmlliu::--188,",
"0000==--eessCCAAAAAAAAncsfww00000000wwllNNAAAAAAAAmmkksu::--8811",
"qq00==--ssssvvAA*************%*$$$**************CCmbllaa,:--7611",
"qq00==--ssssmmAA************%*$*****************CCmmllya::--6611",
"qq00==--ssssvmVV**$$$$$$$$$$$$$$$$$$$$$$$$$$**;;CCbmllhh::--6611",
"qq00==--ssssmmVV**$$$$$$$$$$$$$$$$$$$$$$$$$$**;;VCnvkkhh::--6611",
"qq00==--uudsnnCC&&$$X   ....... ....        >>;;BBBBhhdd::--6611",
"qq00==--uussnnCC&&$$    ............        >>;;BBBBhhdd::--6611",
"qq00--jjuudannCC&&$$    ......  ....        22;;BBBBhhddjj::6611",
"qq00--jjuyafnnCC&&$$    ......O.....        2<;;BBBBhhddjj::6611",
"qqqqjjjjaaaaxxCC&&$$....oooo####@#######OOOO41;;BBcchhddjjjj8811",
"qqqqjjjjaaaaxxCC&&$$....oo+@############OOOO<<;;BBcchhddjjjj8811",
"qqqqjjjjaaaaxxAA&&$$....OO+O############OOOO<<;;BBcczzddjjjj8811",
"qqqqjjjjaaaaxxAA&&$$....OOOO############OOOO<<;;BBcczzddjjjj8811",
"qq00,,jjyyaaNNAA**$$ X..@@##OOOO.#O.OOOO@@@@99;;BBcczzhhjj::1111",
"qq00,,jjuuaaMMAA**$$X  X@@##OOOOO.OO#OOO@@@@99;;BBbnzzhhjj::1111",
"0000==,,uuaaMMAA**$$    @###OOOOO..OOOOO@@@@55;;BBbbzzhh::==1111",
"0000==,,uuaaMMAA**$$ XX ####OOOOO+OOOOOO@@@@55;;BBbbzzhh::==1111",
"0000==,,eeyixxAA*%$$....O.O+#..O +XOXXXo+O O16;;MNxxhhff::==1111",
"0000==,,eeeyxxAA%%$$....O#....#OX+XXOXoX.O++71;;NNxxhhff::==1111",
"qq00,,jjeeeyxxCC%*$$....O .#.#O XOXOXoXo.+#.45;;NNxxhhffjj::6711",
"qq00,,jjeeiexxCC&%%%....++.O#.OOOXOXoXoXOO..55;;NNxxhhffjj::6711",
"qqqqjjjjyessvvVC%%%%+  .+@@@OOOOXoXoXXXX++++<<;;ZZNNllffjjjj88,1",
"qqqqjjjjyissvvCC%%%%   .@@#@OOOOoXoXXXXX++++<2;;ZZNNllffjjjj8811",
"qqqqjjjjeyssvvNN%%%$ . .####OO##XoXoXXXX+++O<<;;ZZNNllffjjjj8811",
"qqqqjjjjyissvvNN%%$$ + +####OOO#oXoXXXXX+++#<<;;ZZNNllffjjjj8811",
"qq00,,jjtedsCCNN%%$$    ########o#@@OOOOXXOO99;;ZZNNhhiijj444111",
"qq00,,jjttssCCNN**$$    ########o#@@OOOOOOoX99;;ZANNhhiijj414,11",
"qq00==,,tessVVMN**%%....########@@@@#OOOoooo77;;ZZNNllii14,:1111",
"qq00==,,tessVVMB**%%....########@@@@.OO#oooo77;;ZZNNllii51::1111",
"qq00==>:ssssmmAA****>,87777722<111338787997797;;ZZMNllgg44::81,1",
"qq00==::ssssmbAA****33777787224436338777997177;;ZZNNllgg44::7811",
"qq00==::ssssmmAA**;;;;>>;;;;;;;;;;;;;;;;:;;;;;;;ZAbbkkgg44::8711",
"qq00==::ssssmmAA**;;;;;;;;;;;;::;;;;;;;;;;;;;;;;ZAvmkkgg44::1811",
"qq00==::eessmNAAAAAAAAVVkkww0000000000kkvvZAVVVVCVcvllhh14::88,,",
"qq00==::eeddmcAAAAAAAAVVkkww0000000000lkmcZAVVVVVVvmllhf44::74,8",
"qq00==::eefgkkvNmmmmmmkkww00444444444400lkvvNvvmnnlkkkhh44::88,8",
"qq00==::eehfkznvmmmmmmkkww00444444444400kkNvvNmnnvlkklfg44::88,,",
"qq00==::::ggggkkkkkkggww0044AAAAAAAA::4444kkkkllllhhhh44::::,1,1",
"qq00==::::ggggkkkkkkggww0044AAAAAAAA::4444llkkllllhhhh44:::,7811",
"0000jj==::::ggggggwwww0044AAhhhhhhhhAA::444444hhhhhh44::::jj8811",
"0000jj==::::ggggggwwww0044AAhhhhhhhhAA:,4444,9hghhhh44::::jj1811",
"008,jjjj==::::::0000,944AAhhii0000iihhAA::::,8444422::::jjjj88,1",
"0088jjjj==::::::00004,44AAhgii0000ushhAA::::4,444441::::jjjj8,11",
"0018jjjjjj====::::::jjjjhhii00::::00iihhjjjj,:::::::::jjjjjj8811",
"0088jjjjjj====::::::jjjjhhii00::::00iihhjjjj::::::::::jjjjjj,811",
"008,8,8,888878188,8888888,88188188889,8888888888888,8,8,,88888,,",
"00888888,8,8811888818880888,8818,8,898,8808888808489888888188111",
"88,,111,,81111,,1111,,1111,1111,,811,,,81111,11111,,1111,1111111",
"888,1118,,1111,81111,81111111118,,1,98,,1111111111,4111111111111"
};
