/* XPM */
static char *_b128cce5aba4864b9e9b4265836bab2NTgFydfCKOCFCHog[] = {
/* columns rows colors chars-per-pixel */
"64 64 222 2 ",
"   c #2B1D0B",
".  c #31200D",
"X  c #2D2313",
"o  c #2D291B",
"O  c #342816",
"+  c #343125",
"@  c #422313",
"#  c #4A2A18",
"$  c #522F1B",
"%  c #4F392A",
"&  c #693D30",
"*  c #54562E",
"=  c #515D32",
"-  c #674333",
";  c #774937",
":  c #68543A",
">  c #7C5036",
",  c #53612F",
"<  c #576438",
"1  c #59633C",
"2  c #5C7C33",
"3  c #5D743F",
"4  c #5E7C39",
"5  c #627E3C",
"6  c #2C3B7C",
"7  c #4B3C7A",
"8  c #4B4B45",
"9  c #4C4C4B",
"0  c #52504F",
"q  c #545454",
"w  c #575857",
"e  c #59565A",
"r  c #5C5B5C",
"t  c #665A49",
"y  c #785A44",
"u  c #74584D",
"i  c #625855",
"p  c #625E5B",
"a  c #5C6940",
"s  c #5F7442",
"d  c #5C645D",
"f  c #6F654B",
"g  c #607546",
"h  c #637C42",
"j  c #61615D",
"k  c #6A615E",
"l  c #5A5867",
"z  c #55526D",
"x  c #615D63",
"c  c #615B6A",
"v  c #765774",
"b  c #4D6E66",
"n  c #586565",
"m  c #636463",
"M  c #6A6565",
"N  c #666A65",
"B  c #696A66",
"V  c #666569",
"C  c #68666B",
"Z  c #6B6C6B",
"A  c #6E716D",
"S  c #73726D",
"D  c #666676",
"F  c #696675",
"G  c #6C6D73",
"H  c #726F73",
"J  c #6E7177",
"K  c #747475",
"L  c #7B7674",
"P  c #767876",
"I  c #767478",
"U  c #79767A",
"Y  c #767A7A",
"T  c #7C7C7C",
"R  c #874F33",
"E  c #84553A",
"W  c #895847",
"Q  c #925E4D",
"!  c #8D644B",
"~  c #94634A",
"^  c #896757",
"/  c #986956",
"(  c #936C5A",
")  c #95715D",
"_  c #9B725E",
"`  c #A26F5F",
"'  c #A5745B",
"]  c #886A67",
"[  c #8C7368",
"{  c #9D7362",
"}  c #98756A",
"|  c #936B70",
" . c #857B79",
".. c #977A74",
"X. c #A27663",
"o. c #A57B66",
"O. c #AA7C66",
"+. c #A27769",
"@. c #A67C68",
"#. c #A97C69",
"$. c #B47D6A",
"%. c #A47C73",
"&. c #638239",
"*. c #64813D",
"=. c #36857C",
"-. c #678245",
";. c #72854A",
":. c #74894C",
">. c #799346",
",. c #7B934D",
"<. c #768A53",
"1. c #768854",
"2. c #798C55",
"3. c #7E9354",
"4. c #56897E",
"5. c #6C8179",
"6. c #76877C",
"7. c #7F817F",
"8. c #748C7D",
"9. c #829A54",
"0. c #819658",
"q. c #829758",
"w. c #878473",
"e. c #898273",
"r. c #80807F",
"t. c #99817C",
"y. c #AC8169",
"u. c #B98A75",
"i. c #BD8C79",
"p. c #C28A74",
"a. c #382F85",
"s. c #3C3788",
"d. c #3E3990",
"f. c #423B94",
"g. c #453E9D",
"h. c #493F9E",
"j. c #463FA1",
"k. c #483EA1",
"l. c #354691",
"z. c #36549B",
"x. c #257C9C",
"c. c #5B5E84",
"v. c #47409F",
"b. c #49429E",
"n. c #464B99",
"m. c #4A499D",
"M. c #6F5883",
"N. c #5D6086",
"B. c #686883",
"V. c #7A7B82",
"C. c #777888",
"Z. c #6A689B",
"A. c #4740A0",
"S. c #4942A1",
"D. c #4B48A1",
"F. c #6E6CA2",
"G. c #7674AA",
"H. c #817E82",
"J. c #91758A",
"K. c #1B928F",
"L. c #1C9596",
"P. c #1C9798",
"I. c #1D9B9B",
"U. c #2A8689",
"Y. c #2C8B8D",
"T. c #338989",
"R. c #24908D",
"E. c #28928B",
"W. c #2C8B92",
"Q. c #239392",
"!. c #299696",
"~. c #229C9B",
"^. c #1EA09E",
"/. c #1E9EA1",
"(. c #2587A2",
"). c #1FA2A3",
"_. c #1FA7A8",
"`. c #20A5A5",
"'. c #20A8A7",
"]. c #28A9A6",
"[. c #20A6A9",
"{. c #21ACAB",
"}. c #21ACB1",
"|. c #24B3B2",
" X c #4C918E",
".X c #638D84",
"XX c #7F8080",
"oX c #7C8588",
"OX c #4AA0A6",
"+X c #838383",
"@X c #878786",
"#X c #84838A",
"$X c #8A868A",
"%X c #8C8B8C",
"&X c #8D8D8D",
"*X c #948A87",
"=X c #8F908F",
"-X c #888596",
";X c #8E8B91",
":X c #918E93",
">X c #938D9B",
",X c #919191",
"<X c #939394",
"1X c #999599",
"2X c #999999",
"3X c #9C9A9C",
"4X c #B1938A",
"5X c #9FA09F",
"6X c #9F9DA0",
"7X c #A19EA2",
"8X c #A59CAB",
"9X c #A89DB0",
"0X c #A4A2A4",
"qX c #A7A4A8",
"wX c #A9A6AB",
"eX c #ABAAAC",
"rX c #B0ACB5",
"tX c #B5B3B7",
"yX c #C3A697",
"uX c #D0BBAE",
"iX c #BAB6CE",
"pX c #EAE2DF",
/* pixels */
"V r +XP 5X3X2X0XK G 0X3X3X2X2X7XP T 7X3X3X2X3X6X+X$X%X$X%X=X0 w qX0X2X3X5X5X5X5X=X<X5X5X2X2X<X2X2X<X2X2X2X3X5X5X=X=X,X,X,XP d x ",
"V r +XP 0X0X6XqXK K 0X7X6X6X6XqXU T 0X6X7X7X6X0X$X%X$X$X&X<X0 r 5X2X=X=X2X2X<X2X%X&X1X<X<X<X=X=X@X%X%X=X&X&X&X%X@X@X%X%X%XK r m ",
"K Z +XT Y P Y  .r w T L +X#X#X$XH H %X@XU K $X$XT T :X$XP +Xq w 5X<X@X+X@X@X@X@XK T @X@X+X@X@X%XZ K Y 7.T T Y K XXT T P T Z r m ",
"N r +XT +X@X+X%Xr e +XT %X;X$X%XK K :X<XT T %X&XP j p j j j 0 q j j p j j p n  .K T @X%X%X%X@X@XH P 7.7.T T K U T T +X+XT K p m ",
"qXqXP @Xw r r e T T XXXX .T %X%XH.+Xm j r.r.U +X9 + o O O O O X X O X X O X + m @X+XP U T +XXX+X7.+X%X@X+XT XXXX+XP K A V m r d ",
"0X0X7.%Xw r w 0 +XP XX .T T %X:XT +Xm m @X+X+X%X8 O     X X X X O O O O X   o B +X+XT T  .V.P Y T 7.r.H.T T XXXXT T T T B V e r ",
"K K e q 1X%XeXtX9 9 +XT T T T T T T +X@Xw r r r 8 O         . X @ O O O X   o S 7.+XT T Y K T P K P P P P T +X .H.+X$X@XZ B r m ",
"K K e w ,X$X0XeX8 8 %X+X+X+XT H.r.r.T @Xr d m m 8 X y y.y.y.u.u.u.y.y.' { $ o S T 7.T +XP K Y P P P T U P T T +XT +X%X%XZ m r m ",
"qXqX .@XK H P P :X2Xw e P I V.r.K K T T T H.m r x O ( $.$.p.4Xi.u.u.u.y.O.% % B Y U P P &X@X$X%X@X%X@X%X&XT Z K T +X@X%XK B r l ",
"7X0XT +XK U +XT ;X:Xe r P I +X@XK K H.r.K T e w *X{ O.$.$.$.$.+._ O.u.' ~ ~ ^ [ T P P U @X+X@X+X+X+X+X@X+XT L P T +X@X@XZ M r d ",
"$X%XG K U U L K K K P U +X+Xm j ,X:XP +XK K :X1X..$.4XyXJ.| +.$.} | | u.4XX._  .T P K Z  .XXT T P K P K H K r.T K P P P V m p m ",
",X;XU U U U U P Y U U I r.+XB V ,X,XH.7.U K :X<X*X%.pXpXJ.7 $.J.p.| 7 iXpX4X%. .+XT P K r.r.+Xr.T P T P K Y +XT T T U P Z V r m ",
"U K N N N N B N N V U U N N B B N n L U B B K K %.` yXuXJ.] ] Q / ] v 4XuX{ (  .H Z B Z G Z A Z K K K K H B V m Z Z K K S B m m ",
"T T Z A A H H Z A Z T T A A A A A B T T Z Z U T [ ~ O.$.$.$.; & & ~ u.X.' E y k B B B V V B V N B Z Z Z Z V j m B Z A K B V p n ",
"V r n m w q w q j n p m q q w q q q m j m x p r ] ~ ~ / ; ; ; R ; ; ; W ~ > y w r e r r e r r r w r r e d m r m l j r r r r e p ",
"r w w w 9 9 w w r r r d w w r e q 0 r e m m r r ] Q ~ ~ $ # y E W & @ ; ~ E W i e w w w e r r r q w e e e r j j r w r e r w w e ",
"qXqXqXqXwXtXe r 2X<XU V.j B w q %X+X;X3X0 9 2X;X..; ; - # @ $ $ $ # @ - W > y *XqXqXqXqX5X#Xe w tXeX0XqX0X2X<X,X0X5X0X0X2X3XqX0X",
"0X7X5X6X3XeXe r ,X&XH Y r m w q +XU ;X<X0 9 <X$XL : * - # @ @ . @ # @ * y : t  .=X&X<X:X@XY r w qX2X,X2X,X,X%X@X&X=X,X,X@X%X=X<X",
"H.T U Y @X%XB B T T  .+XB K w q =X XW.!.W.R.W.W.Y.U.E.Y.j > ! W E ; > b Y.Y.E.Y.Y.Y.!.!.!.U.e e 2X&X@X@XT T T U K P K P K K P P ",
"+XP  .U %X<Xj n @X@XV.+XN Z w 9 <X X/.}._.).).).I.L.~.Q.b f ! ! E y t =.I.^.).^.~.`._.{._.I.b e 5X,X@X@XT r.r.+XP P P U P T P T ",
"&X%X%X&XP P ,X1Xw w +XT Y T w q I T.^._._._.{.|.'._.).'.~.U.f R R d R.'.{.|._._.'.'.'.{._.L.n r 5X&X6. .T +XT H.T +X@X@XP L P T ",
":X%X%X&X7.T %X<Xd r $X@XP XXq q K T.).{._._._._.{.'.'.'._.P.b d d =.~.{._.|.|._.{.'.'.{._.I.b l 5X=X7.7.Y 7.P P 7.+X%X%XT P T P ",
"H.T T T r.r.T +Xq q r d q q m w eXOX_.|.{.|._.{.'.{.{.{._.^.~.!.Q.~._.'.{.{.'.'._.{.|.{.}._.b e 0X2X@X@XA K H K T T T T T T P P ",
"@XT T +XT T r.%X9 9 r l 0 0 V w 7XOX)._.{.{.'.).'._.|.{.{.'.I.I.P.I._.{.{.|.{.).).'.|.{._.I.n w qX,X%X&XZ K K A +X+XT +X+XT U T ",
"+XT XXT 7.+XN r rXeX=X=X<X3X0 9 0X XI._._.}._.~.`._.|.{.{.{./.I.P.).{.}.|.}.}.^.^.{.}.}.`.K.n w 3X%XP P V.XXV.T K P U U P T P P ",
"+XH.H.+Xr.+Xm r 0X0X$X%X%X<X0 9 qXoX6.8.8.8..X6. XI.^.^.{.{.[.`.P.).{.)./.I.Q..X6.8.8.8.6.5.n r 3X%XT T +XXX .+XT T P T T U U P ",
"U I K U m m ,X,XY U  .V.K Y q 0 :X..} o.y.y.o.O.4.R.L.L.'.}.{.`.P.^.{./.L.L.R.e.@.@.o.y.@.{ M r 2X%X%X@X%X+XP +X%X+XK P %X+XK K ",
" .U U T N V <X,XT XX .+XK T q 0 <X} X.O.{ ) _ y.4.Q.L.P.'.{.'.^.P.)._.'.`.I.R.e.o.) ) +.#.` k r 3X=X@X%X%X@XT T %X@XP P %X+XS K ",
"G N B N T U m m Y K K K H.%Xq q I [ X.O.{ ) { O.4.Q.L.L.'.{.'.^.L.^.{._.'.I.Q.e.o._ ( o.O._ M r =X7.N B K K K K H Z Z Z B M M V ",
"K Z Z B V.T B B T U U Y +X%Xq q XX^ ( o.{ ) _ o..XQ._._.{.{.I.L.)._.|._.'.L.R.w.+.( _ o.{ ! p r 7.P V B G Z S Z N V V B n m V B ",
"m l j d p r n j x r d p q q w r q u ( o.o._ { #.4.K._.|.|.{.I.I.)._.|._._.~.R.e.o._ { o.X.! p m e r r n m p r r r m r e r r e r ",
"Z V N V V N M V V V V B r r r r r u ( } o.o.@.#.4.L._._._.'.I.I.`.{.{.'.'.I.R.e.@.o.+.+.{ ^ p r r r p p p m n m p r d r p e m d ",
"&X%X6X7X5 -.2.2.2.1.q.3.q.3.2.2.;.f ( X.y.o.@.@..X~.{.{.{.[.I.I.)._.{.{.{.I.R.e.#.o.@.o.X.! <X7X .U 7X3X2X3X3X3X#X%X%X$X%X<Xq w ",
"%X#X3X7X2 5 2.1.1.1.3.2.3.3.1.2.&.f ^ +.o.o.o.o. X].{.{.{.[./.I.).'.{.{.{.^.R.e.@.o.@.@._ ^ *XqXT T 7X3X7X0X7X0X$X%X$X$X%X<X0 r ",
"3X3XT T >X1X5 5 q.3.1.1.3.3.h 4 >X[ { o.@.o.@.y..XI.I.`.)././.).'.{._.{.|.I.R.e.@.O.@.@.+.( H.$XK H $X$XU P @X$XP U &X%XP +Xq e ",
"3X3XXXV.;X;X5 h q.3.2.2.3.3.h 4 <X..+.#.o.O.O.#.4.Q.I.I.I.I.[.{.|.{.{.{._.I.Q.e.#.o.@.y.o.{ $X&XH K :X,XT U %X&X+X+X&X&X .@Xq r ",
"1X3X$X:XV.@X5 h 2.2.g h 2.2.h *.#X[ X.{ _ o.O.O.D z.z.z.z.z.z.z.z.z.l.(.|.I.R.w.y.#.X.) X.` *X%XH.+Xj m XX7.P +Xe w +XT XX@Xw e ",
"3X1X$X&XXX+X4 &.2.2.4 4 2.2.*.&.#X} X.( ( o.@.y.M.D.j.h.h.S.k.k.n.f.a.(.|.).E.w.y.O.{ ( { ` @X:XT H.m m @X+X+X%Xr r +XH.XX#Xq r ",
"3X2X .V.%X;X#X-X4 4 9X9X:.<.G K +X] ^ ( ) +.{ ) v b.v.S.v.A.S.j.g.v.b.s.6 x.R.S / ' ' ^ ^ ^ L P H.T +X%Xw r r r m d P K K T q r ",
"3X3XXXXX>X>XT #X2 2 8X6X:.<.G B +X] [ [ } %...| v b.A.A.g.S.j.j.j.g.b.f.a.x.W.P } t...{ [ ]  .r.r.r.T @Xr d m m r e Y L P 7.q e ",
"3X1X%X:X5 2 :X%X>X>XT V.5 5 #X@XXX#X2 4 :.;.rXrXF.k.k.h.h.g.v.S.j.j.j.v.h.v.n.J <X2Xr e P H +X7.K K +XT U H.m r %X@XL U N Z e r ",
"1X6X$X>X5 5 >X:X&X:X7.+X2 &.#X+X#X#X4 h 1.;.tXtXF.D.j.h.h.h.v.v.v.S.j.h.h.g.m.B.&X<Xe i U K +X+XH K r.7.Y U w q @X+XU V.N Z e e ",
"$X%XU V.5 g 5 5 #XV.&X%X:X>X%X;X>.3.1.1.q.q.4 5 B.S.j.j.g.v.v.S.S.v.S.j.j.g.m.D K K T U @X+Xm j ,X;XT H.K K <X2Xw p q 9 T T w e ",
">X&XT H.3 g -.&.$X+X&X%X&X&X,X>X,.3.1.1.q.q.h h B.D.g.g.v.S.v.v.v.v.v.j.v.v.m.B.U U L L r.+XB M ,X,XT +XU K ;X1Xe m e q r.r.w r ",
"T T Z K 3 g s 3 G B ,X,XB Z 5 5 q.3.q.q.5 h -.5 F.D.k.h.v.v.S.S.j.b.v.v.h.g.m.D N V P U N N B Z m m K L V B K I B H w w d j e e ",
"H.H.S I 5 g g g K A 1X,XA L *.h 9.q.q.q.h -.;.*.F.S.j.j.v.S.h.S.j.S.j.S.j.j.b.D A B T T A A A A A A T T B Z P  .B A q w V m w e ",
"B V C Z c x < < G M m m l j x x l l = 1 1 1 1 1 N.D.j.S.S.j.v.v.h.j.j.v.S.j.D.z n m r l 0 q w q q q n p d m j r m m m m m m N m ",
"C V C c p c , , m j m m e r x l r r = = = = = = c.D.g.v.g.h.v.v.v.v.v.v.h.g.D.z r r p m w w e r q q r r V m r e w w w w w w w w ",
"q.q.9.9.*.5 rXwXwXqX0XeX,X1Xr r 1X:XrXwXwXwXwXwXG.D.j.v.b.b.b.v.v.v.b.b.b.A.D.l 2X<XU H.n M w q %X@X,X2X0 9 2X;XwXqXqXqXqX0XqXqX",
"q.q.,.9.4 2 wX7X0X7XqX0X%X,Xr e :X@X0X7X0XqX0X7XG.D.d.s.a.s.f.v.v.f.s.s.s.d.D.z &X&XK U r n e q H.P %X1X0 9 <X$X0X7X3X6X6X0X3X6X",
"h 4 >X;X:X;X%X$X$X%XT T H.@Xl w 7X7X@X%XU T %X@XZ.D.d.s.s.f.g.j.v.f.s.s.d.f.m.D r.T r.+XB K w 0 ,X&XH K m m K H P P @X@XP K $X@X",
"*.4 :X$X%X%X%X%X%X&XV.+XXX+Xp e 0X1X%X&X+X+X&X%XF.D.j.S.S.S.S.g.v.v.A.A.A.A.D.z @X+XT +XM Z q 0 <X:XP T r r U H T T &X%X+X+X%X%X",
">X:XXXXXXXT &X&XXXXX+XXX;X,Xr e 7X3XT +XN Z ,X,XZ.b.g.j.h.v.h.S.D.v.v.S.v.g.m.-Xw e +X .Y T w q U U r e T P :X&X%X%XP +Xe w +XU ",
"&X&XT +XXXXX%X&XXX+X+X+X,X1Xe e 7X3X+X#XA Z ,X,XZ.b.h.j.v.v.S.S.S.A.S.j.j.g.m.-Xr d @X+XU XXq q K K e r I K :X$X%X%X+X%Xr w +Xr.",
"+XXX&X;X&X&X7.7.XX#X,.,.N K x e 0X6Xm A @X@XA Z Z.m.h.j.S.v.S.v.j.S.v.j.g.g.D.C.q w l j q 0 m w eX0XXX@X%X:XT V.T +Xe w %X@X7.T ",
"@XT &X%X%X;X+X+XXXV.3.3.Z A r w qX7XN G #XoXB B Z.n.g.j.v.v.S.S.v.S.v.S.j.g.m.C.9 9 r d 0 0 V w 5X0XP T %X&XT  .T 7.r r +Xr.r.r.",
"+XXXXXXXXXXX+X7.;X;X,.,.;X1Xe r ,X;X:.<.,.,.#X@XF.D.j.A.j.h.S.j.S.j.j.A.j.g.m.l rXeX&X:X<X3X0 9 qX0XY 7.T T 7.T &X<Xr p Y H +X .",
"+XXXXXXX+X@X7.T ;X>X,.,.;X<Xl e <X;X;.1.,.,.+XV.Z.b.f.g.g.g.g.j.g.g.g.g.g.g.n.z 0X0X$X%X%X<Xq 9 qX0XP XX7.T 7.7.%X,Xd l P I +XV.",
",X&X=X,XZ N &X>X>.,.3.,.;X,Xe e <X;X,.,.#XoX;X&X-XJ D C D F D D F F F D D D B.&XU P  .H.K P w 0 ;X%XH K 7. .K K %X<X0 0 T U K K ",
",X,X;X,XZ A >X>X,.3.<.,.;X:Xr r <X,X3.3.#XXX&X%XoXA F Z B B Z B B B B Z B B H $XT +XV.H.K U w 0 :X:XI U +X+XL K :X1X0 q H.T P U ",
"A Z Z G 2.2.:.:.3.,.>X;X3X7Xr x A Z <.1.:.:.:X,XY N m m N M M M B M V V M V G N U K K I +X@Xq q I K N N B m U U j N w w q 9 Z N ",
"A A J J 3.2.3.2.q.3.:X&X7XqXe x P K 3.3.3.2.>X1X-XoXV.V.V.V.V.V.V.V.V.T Y Y oXG T T P P +X%Xq q +X .Z A Z Z U T Z H w w e w A A ",
"@X;X, < 1 1 1 1 = 1 V V e r x x l x < 1 1 1 < , G V N B < < 1 1 m n j n r r n j r r p n q 0 e r 0 q w q j n r r m d m m m m j d ",
"@X%X< 3 a a a a a 1 Z H x x m m m V 1 a a a 1 1 G Z Z G 1 a a a Z M V V N N V V V V V B r r d r d l r r N V B V V V V N m V V V "
};
