/* XPM */
static char *_0f7b11927554b0cc813a48f89860c67QTf2VnLHWZYnaktp[] = {
/* columns rows colors chars-per-pixel */
"64 64 195 2 ",
"   c #051916",
".  c #071C19",
"X  c #221005",
"o  c #2B1D0A",
"O  c #2E1E11",
"+  c #2C210F",
"@  c #35230D",
"#  c #2D2213",
"$  c #2E2C1F",
"%  c #322613",
"&  c #392717",
"*  c #0B1E20",
"=  c #212B26",
"-  c #242E2B",
";  c #323127",
":  c #253C36",
">  c #263F39",
",  c #41220E",
"<  c #422313",
"1  c #472917",
"2  c #542C1C",
"3  c #523528",
"4  c #2A443D",
"5  c #39453F",
"6  c #4C4C3E",
"7  c #5B4A33",
"8  c #684134",
"9  c #764A35",
"0  c #705136",
"q  c #7E5239",
"w  c #44397B",
"e  c #294742",
"r  c #284749",
"t  c #2C4C4D",
"y  c #384641",
"u  c #38574E",
"i  c #34584F",
"p  c #38584F",
"a  c #345755",
"s  c #375754",
"d  c #365C56",
"f  c #3B635C",
"g  c #3E6A5F",
"h  c #1D767E",
"j  c #3F6A61",
"k  c #3E7F74",
"l  c #4D534F",
"z  c #53594E",
"x  c #4E5550",
"c  c #525551",
"v  c #775B46",
"b  c #7A5D4E",
"n  c #735E50",
"m  c #48645B",
"M  c #5A6756",
"N  c #716255",
"B  c #5E5C76",
"V  c #664D79",
"C  c #625E7D",
"Z  c #795B79",
"A  c #416A62",
"S  c #486B65",
"D  c #486F69",
"F  c #467267",
"G  c #497468",
"H  c #4B7A6D",
"J  c #676766",
"K  c #686664",
"L  c #696668",
"P  c #696A6B",
"I  c #697176",
"U  c #76777D",
"Y  c #73787A",
"T  c #874E33",
"R  c #83543A",
"E  c #8A5946",
"W  c #945E45",
"Q  c #885E51",
"!  c #8D6046",
"~  c #97664B",
"^  c #856252",
"/  c #8C6959",
"(  c #986652",
")  c #946D5B",
"_  c #9B6E5D",
"`  c #99715A",
"'  c #9B715D",
"]  c #A67559",
"[  c #815C6D",
"{  c #8B6866",
"}  c #927165",
"|  c #9C7462",
" . c #95726F",
".. c #99786A",
"X. c #A27664",
"o. c #A57B66",
"O. c #AA7C65",
"+. c #A67668",
"@. c #A57C69",
"#. c #AA7D69",
"$. c #B27D69",
"%. c #BA7E73",
"&. c #1D807F",
"*. c #538575",
"=. c #6A847C",
"-. c #728A7E",
";. c #9C8373",
":. c #A1806C",
">. c #AD826A",
",. c #A78276",
"<. c #BC8973",
"1. c #B98A76",
"2. c #AAA572",
"3. c #ADAA76",
"4. c #AFAC78",
"5. c #B1AC7A",
"6. c #B6B37E",
"7. c #C38D76",
"8. c #C0967F",
"9. c #3B3686",
"0. c #3D368C",
"q. c #3F3991",
"w. c #413A92",
"e. c #443E9D",
"r. c #483E9E",
"t. c #463FA1",
"y. c #483FA1",
"u. c #2F518E",
"i. c #335C9A",
"p. c #1D7E84",
"a. c #3463A0",
"s. c #5B4A8A",
"d. c #47409E",
"f. c #48419E",
"g. c #4C4B9D",
"h. c #53549C",
"j. c #60589E",
"k. c #4E618A",
"l. c #717386",
"z. c #4640A1",
"x. c #4841A0",
"c. c #4C4AA1",
"v. c #5E5DA3",
"b. c #5E60A4",
"n. c #6665A7",
"m. c #1E8688",
"M. c #1B908D",
"N. c #1B8D94",
"B. c #1D9696",
"V. c #1D9997",
"C. c #1D9699",
"Z. c #1E9C9C",
"A. c #258D8C",
"S. c #2C8B89",
"D. c #378D86",
"F. c #28918A",
"G. c #2A8990",
"H. c #279795",
"J. c #3A9690",
"K. c #1FA19E",
"L. c #1E9FA2",
"P. c #238AA5",
"I. c #2495A7",
"U. c #1FA3A3",
"Y. c #1FA7A8",
"T. c #20A5A5",
"R. c #20A9A7",
"E. c #20A7A8",
"W. c #21ACAC",
"Q. c #21ACB1",
"!. c #23B3B1",
"~. c #6D8D82",
"^. c #788686",
"/. c #6E9080",
"(. c #838994",
"). c #AD9185",
"_. c #B9B987",
"`. c #BEBF89",
"'. c #C4A79A",
"]. c #D1BCAD",
"[. c #99C493",
"{. c #BFC089",
"}. c #C4C08E",
"|. c #DBD7A6",
" X c #DFDDA9",
".X c #E1DEAD",
"XX c #E4E2B1",
"oX c #E8E4B2",
"OX c #EAECB5",
"+X c #EEECBD",
"@X c #F3F7BF",
"#X c #EFEEC3",
"$X c #F9F8C6",
"%X c #D9D7E3",
"&X c #F1EDEA",
/* pixels */
"H H H H H H H H H H H H F F F F F F *.H H H H H H H H H H H H H H H H H H H H H H H H H H H H H H H H H H H H H F F F F F F g f ",
"H H H H H H H H H H H H F F F F F F H H H H H *.H H H H H H H H H H H H H H H H H H H H H H H H H H H H H H H H F F F F F F f A ",
"H H F F F F F F F F F F F F F F F F F F j F F F J m l l c c c c x l x z z l m D F F F k F F F F F F F F F F F F g g g f A A f f ",
"H H F F F F F F F F F F F F F F F F F j F F F F 5 + % + % % # # + + O + # + ; S F F F A F F F F F F F F F F F F g f f g A A d f ",
"H H F F [.[.[.[.[.[.r r r r r r r r f f [.[.[.[.6 + + + + + # % $ & & % # o $ 4.[.[.[.[.f f f f t t t t t t [.[.[.[.[.[.A A d f ",
"H H F F [.[.[.[.[.[.r r r r r r r r f f [.[.[.[.6 + + + o o @ % & 1 & + o o ; 4.[.[.[.[.f f f f t t t t t t [.[.[.[.[.[.g f d f ",
"H H F F [.[.[.[.r r t t a a a a a a a a f f f f 6 X ' >.:.>.1.<.>.>.>.] X.% $ +Xf f f f i i s a i a t t r r r r [.[.[.[.d j f f ",
"H H F F [.[.[.[.r r t t a a a a a a a a f f f f M @ >.1.<.1.8.8.1.<.1.X.>.& 3 +Xf f f f a i s a a a t t r r r r [.[.[.[.A A j d ",
"H H F F [.[.r r t t a a 3.3.2.2.2.3.D F F F F F ;._ $.%.$.O.$.+.` #.7.( ~ W ( f S F F F F F 3.5.3.4.4.4.a a t t r r [.[.A d d A ",
"H H F F [.[.r r t t a a 2.2.3.2.2.2.F F F F F F ).+.'.'.[  .+.+.X... .).)._ | A F F F F F F 4.4.4.4.4.4.a a t t r r [.[.j j f d ",
"F F F F r r t t t t 2.2.4.5.5.5.5.5.5.5.2.2.*.*.). .&X&Xw V %.%.7.Z w %X&X..,.G *.*.{.{.{.{.{.{.{.{.3.4.3.3.i i t t r r j A f d ",
"F F F F r r t t t t 3.2.5.5.5.5.5.5.4.4.2.3.*.*.%._ ].].[ [ Q ( ( [ Z '.].~ } S *.*.{.{.{.{.{.}.{.{.4.3.3.3.f i t t r r f A f f ",
"F F F F r r t t 2.2.4.5.5.5.OXOXOXOX.X.X.X.X5.5. .! >.<.%.+.8 8 8 _ 7.] ] T v *.{.{.XXXXXXXXXXXX X.X{.{.4.3.3.4.a a t t j f d f ",
"F F F F r r t t 2.2.5.5.5.5.OXOXOXOX.X.X.X.X5.4. .! ~ ~ 8 9 v 9 9 9 8 E ~ 9 v *.{.{..XXXXXXXXXoX X.X{.{.4.4.4.3.a a t t f A f f ",
"F F F F r r r r 2.2.5.5.OXOX$X$X$X$X$X$X$X$X.X.X..E W W , 2 E E E 3 , E W q E _.XXXX$X$X@X$X$X$X$X$X.X.X{.{.3.3.a a t t A f d f ",
"F F F F r r t e 2.2.5.5.OXOX$X$X$X$X$X$X$X$X.X X/ 9 9 9 , , 2 2 2 2 < 9 R 0 v _.XXXX$X$X$X$X$X$X$X$X.X.X{.'.3.5.a a t t f A f f ",
"H H F F r r t t 3.5.5.5..X.X$X$X4 4 4 4 4 4 4 4 N 7 7 7 < < & , < < @ 0 v 0 n 4 4 4 4 4 4 4 4 e OXOX.X X{.{.4.3.d a t t g g f d ",
"H H F F r r t t 5.5.5.5..X.X$X$X4 h A.M.m.A.m.p.S.S.A.S.9 R ~ E q T 9 k F.F.S.m.&.m.M.M.M.m.4 e OXOX.X.X{.{.4.4.a a t t g f f f ",
"H H F F r r t t 5.5.5.5..X.XOXOX4 N.U.W.Y.U.Z.L.V.V.K.H.M n ~ ! q n N F.U.L.Z.Z.Z.Y.Y.Y.U.B.d i OXOX.X.X{.{.6.6.a a t t A f f d ",
"H H F F r r t t 5.5.5.5..X.XOXOX4 N.Z.Y.W.U.Y.W.Y.U.U.T.H.k q R T F F.Y.Q.Q.W.R.R.Y.Y.Y.Y.N.i i OXOX.X X{.}.6.6.a a t t f f f f ",
"H H F F r r t t 2.3.5.5..X.XOXOX4 N.U.!.W.R.Y.W.W.R.T.R.U.F.M M M S.U.Q.Q.!.R.W.W.R.R.W.Y.Z.a i XXOXoXoX_.6.6.5.a a t t j f f f ",
"H H F F r r t t 3.3.5.5..X.XOXOX4 L.Y.W.W.W.R.R.W.Y.Y.W.U.U.V.H.A.H.U.Y.W.W.R.W.T.W.!.W.Y.U.a i oXXXoXoX6.6.5.5.a a t t f A d f ",
"H H F F t t [.[.3.2.4.5..X.XOXOX> B.U.W.W.W.T.U.E.Q.!.W.Y.Y.L.Z.V.U.Y.Q.Q.W.W.U.T.W.!.Y.Y.Z.d i oXoXoXoX6.6.6.5.[.[.a a j j f f ",
"H H F F t t [.[.2.3.5.4..X.XOXOX4 m.Z.Q.Q.W.T.V.Q.Q.W.W.Q.Y.Z.Z.B.U.W.W.Q.Q.W.Z.U.W.Y.!.T.M.i i oXoXoXoX6.6.6.4.[.[.a a f A d f ",
"H H H H [.[.[.[.5.4.4.4.|.|.OXOX: I =.-.-./.-.-.H.K.K.Z.W.W.E.H.C.U.W.U.U.Z.H.~.-./././.-.=.p a oXoX|. X6.6.6.5.[.[.[.[.A A d f ",
"H H H H [.[.[.[.5.4.4.4.|.|.OXOX4 { :.:.:.:.:.#.D.H.B.B.Q.W.W.T.C.U.W.L.C.B.F...#.:.:.o.@.} p i oXoX X|.6.6.5.5.[.[.[.[.A A j d ",
"H H H H [.[.[.[.5.4.4.4.|.|.$X$X4 ) :.O.| ` ' >.D.B.B.V.W.W.T.K.B.U.Y.U.K.B.F.@.X.) | o.o.' p i oXoX X X}.}.5.6.[.[.[.[.A A d j ",
"H H H H [.[.[.[.4.4.4.4.|.|.$X$X4 ) ] :.| ) ] >.D.C.B.B.W.W.T.K.B.U.W.Y.Y.C.H.:.o.) ' o.+.' p p oXoX X.X}.}.5.6.[.[.[.[.A A f d ",
"H H F F d d [.[.3.2.4.4.XXXX$X$X4 b _ @.| ) X.o.D.V.W.W.W.R.C.Z.U.Y.W.W.Y.V.A.:.X.) | o.] ^ u i oXoX X X}.}.6.6.[.[.a a d f f d ",
"H H F F d d [.[.2.3.4.4.XXXX$X$X4 b _ #.| ) X.#.D.B.W.Y.W.T.B.Z.U.W.W.U.Y.V.F.o.o.) | o.' ^ u i oXoX X X}.}.6.6.[.[.a a f f f f ",
"F F F F r r d d 3.3.3.4.XXXX$X$X4 b ` o.:.O.o.#.D.V.Y.Q.W.R.V.Z.T.W.W.W.W.C.A.:.@.o.o.@.' ^ p u oXoX X X}.}.5._.a a r r d f f f ",
"F F F F r r d d 3.2.4.4.XXXX$X$X4 b _ o.o.o.o.#.J.I.W.!.W.R.C.Z.T.Y.W.W.W.Z.A.:.@.o.o.O.' ^ p p oXOX X X}.'._._.a a r r f f f d ",
"F F F F r r d d 2.2.2.3.|.|.$X$Xe b _ #.o.o.o.o.J.Y.Q.!.W.T.C.Z.U.W.W.W.W.V.A.@.O.o.@.@._ ^ u i XXXX|.|._.6.6.5.p s r r f f f d ",
"F F F F r t d d 2.2.2.2.|.|.$X$X4 ^ | +.o.o.o.#.J.K.U.U.U.L.L.U.Y.W.Y.W.!.V.A.:.o.O.o.#.X./ p i XXXX|.|.6.6.6.6.a a r r f d f f ",
"H H G F a d [.[.2.2.2.2.|.|.OXOX> / o.o.>.O.o.o.D.Z.V.H.V.L.E.W.W.!.Y.W.Y.V.A.:.o.o.>.:.#.} p i XXXX|.|.6.6.5.6.[.[.a a A A d f ",
"H H D D d d [.[.2.2.2.2.|.|.OXOX4 ) o._ | O.O.$.k.a.i.i.i.i.a.a.a.i.u.U.!.C.A.:.>.o.| ` +.| p u XXXX|.|.6.6.6.5.[.[.a a f A d f ",
"H H H H [.[.[.[.2.2.2.5. X.XOXOX> ) +./ | o.@.>.s.z.d.d.d.z.z.z.r.w.9.P.!.V.F.;.#.+.| ) X.' p i $X@XXXXX`.{.6.6.[.[.[.[.A A d f ",
"H H H H [.[.[.[.2.2.5.5. X XOXOX> b ) / } +.' ' s.d.u.d.e.x.x.x.r.r.r.u.u.C.F.} ` O.' / ) ^ p i @X@XXXXX{.{.5.6.[.[.[.[.A A d f ",
"H H H H [.[.[.[.2.2.5.5. X XXXXXe N } } +.#. . .s.y.y.y.d.z.x.x.r.r.r.9.9.P.G. ...:...} } { p i @X@XXXXX{.{.6.5.[.[.[.[.A A j d ",
"H H H H [.[.[.[.2.2.5.5. X XXXXX> y y y = = = = v.t.y.y.d.x.x.x.y.y.r.x.e.u.i.- - - - = m m i i @X@XXXXX{.{.5.6.[.[.[.[.A S d f ",
"H H F F d d [.[.2.2.5.5.OXOXXXXXe e : :         j.t.y.r.d.x.x.x.t.y.t.r.r.e.g.* . . . . A g i i @X@XXXXX6.6.3.3.[.[.f f f d f f ",
"H H F F d d [.[.2.2.5.5.OXOXXXXX4 4 : :         j.e.t.e.d.d.f.d.r.r.t.y.y.e.g.. . . . . g j i i @X@XXXXX6.6.3.3.[.[.f f f f d f ",
"H H F F r t d d 2.2.5.5.OXOXXXXX4 e : :         h.e.z.d.d.d.d.x.d.d.t.y.t.e.g.* . . . . g g i i @X@XXXXX}.{.3.3.f f a a f d f f ",
"H H F F r t d d 2.2.5.5.OXOXXXXX4 4 : :         v.e.e.d.d.d.x.x.x.d.d.d.t.e.c.* . . . . g g i i @X@XXXXX{.{.3.3.f f a a f f f d ",
"H H F F r r a a 5.5.5.5..XXX$X$X4 4 4 4 m f f g b.t.t.d.x.d.x.x.x.d.d.d.r.e.c.j A A g g g g i i @X@XXXXX{.{.6.6.j d a a j j d d ",
"H H F F r r a a 5.4.5.5..XXX$X$X4 4 4 4 f f g g b.t.t.d.y.y.d.d.d.y.d.f.y.t.c.j f A g g g g i i @X@XXXXX{.{.6.6.d f a a j f d j ",
"H H F F r r a a 5.5.4.4.XX.X$X$X4 4 i i i i i i v.z.r.f.x.e.d.x.d.r.y.f.y.t.c.a s i i i i i i i @X@X.X.X{.{.5.5.j f a a j j f f ",
"H H F D r r a a 5.5.5.6..X.X$X$X4 4 i i i i i i v.e.r.f.d.x.d.d.d.d.d.f.r.t.c.a i i i i i i i i @X@X.X.X{.'.6._.f f a a f j f d ",
"H H F F r r a a 2.2.5.5..X.X$X$X$X$X$X$X$X$XOXOXn.y.w.0.9.w.f.x.r.w.w.9.w.y.z._..X X@X@XOXOXOXOXOXOX.X.X{.{.6.6.f f a a g g d f ",
"H H F F r r a a 2.2.5.5..X.X$X$X$X$X$X$X$X$XOXOXn.u.0.w.9.w.f.r.r.w.9.9.0.u.c._..X X@X$XOXOXOXOXOXOX.X.X{.{.6.6.f f a a g f f f ",
"H H F F r r a a 2.2.3._.{.}..X.XXX.X.X.X.XXX{.{.v.e.w.r.d.e.d.d.t.r.e.r.t.e.g.D {.{..X.X.X.X.X.X.X.X{.{.{.{.6.6.f f i a f j f d ",
"H H F F r r a a 2.2.5.5.{.'..X.X.X.X.X.X.X.X{.{.v.r.y.y.x.d.x.d.t.r.y.y.t.e.c.D {.{..X X.X.X.X X.X.X{.{.{.{.6.6.f f i a j j f f ",
"H H F F r r a a a a 6.6.6.6.{.{.{.{.{.{.6.6.*.*.v.d.r.t.z.x.x.x.t.x.d.x.t.e.g.f f f {.{.{.{.{.{.{.{.6._.6.6.f f a a a a f f f d ",
"H H F F r r a a a i 6.6.6.6.{.{.{._._.{.6.6.*.*.b.e.r.t.d.d.x.x.r.d.x.t.t.t.g.f f f {.{.{.{.{.{.{.{.6._.6.6.f f a a a a j j f f ",
"F F F F [.[.r r a a a a 6.6.6.6.6.6.*.*.*.*.F F v.q.z.z.x.d.x.x.x.x.d.x.t.t.g.a f f f f f f _._.6.6.6.6.g f i i a a [.[.j j d j ",
"F F F F [.[.r r a a a a 6.4.6.6.6.6.*.*.*.*.F F b.d.z.z.x.d.x.z.z.z.x.x.y.u.g.a f f f f f d 4._.6.6.6.6.f f i i a a [.[.j j d d ",
"F D f A [.[.[.[.r r a a a a a a F F F F f f f f n.q.r.e.e.e.e.g.e.e.r.r.r.w.g.+Xa a a a d f f f f f f f a a a a [.[.[.[.j f d f ",
"F D j f [.[.[.[.r r a a a a a a F D F F f f f f (.B C C C C C s.C C C k.C B l.#Xa a a a f f f f f f f f a a a a [.[.[.[.f j d f ",
"F F f A [.[.[.[.[.[.r r r r a a a a a a [.[.[.[.^.P I P K P P P L P L P L L I 5.[.[.[.[.a a a a a a a a a a [.[.[.[.[.[.j j f f ",
"F F A f [.[.[.[.[.[.r r r r a a a a a a [.[.[.[.l.L K K K K L K K K L L L L P _.[.[.[.[.a a a a a a a a a a [.[.[.[.[.[.f j d f ",
"F F j j f A f A A j j j f m f j A f j f A A A A (.U l.U U U U U U U l.U Y Y l.S A A A A A A j A j j f j f A f f f A f A j f f f ",
"F F f j A A j f j d j j g f f g f A f A A A A A H S S S S D S S S S S S A S D A A A A A A A A A j f j f A A f A A f A A f j f d ",
"A A d d f f d A d d j d d f f f d A f f f d d f f f m f f d f d m f f f d f f f f f f f f f d f d f d d a f f f d f f a f f f f ",
"j D d j d f f d f f d f f f d f f f d d f f f f d d f f f d f f f f d f f f f d f a f f f a f f f f f f f f f a f f f f d f f d "
};
