/* XPM */
static char *b7060e8d4f2f45a9d526e9e69e61b8d2QYhaNVhXQ3hovIu6[] = {
/* columns rows colors chars-per-pixel */
"64 64 14 1 ",
"  c #2E0101",
". c #330102",
"X c #3F0103",
"o c #410103",
"O c #450103",
"+ c #4A0104",
"@ c #530205",
"# c #550205",
"$ c #5F0307",
"% c #680308",
"& c #6D030A",
"* c #7B040C",
"= c #7F040D",
"- c #960613",
/* pixels */
"****$$$$    ====--------====****&&&&%%%%OOOO****************----",
"****$$$$    ====--------====****&&&&%%%%OOOO****************----",
"****$$$$    ====--------====****&&&&%%%%OOOO****************----",
"****$$$$    ====--------====****&&&&%%%%OOOO****************----",
"****####oooo--------$$$$%%%%====----%%%%oooo%%%%--------====$$$$",
"****####oooo--------$$$$%%%%====----%%%%oooo%%%%--------====$$$$",
"****####oooo--------$$$$%%%%====----%%%%oooo%%%%--------====$$$$",
"****####oooo--------$$$$%%%%====----%%%%oooo%%%%--------====$$$$",
"$$$$$$$$OOOO$$$$$$$$$$$$@@@@$$$$$$$$####oooo$$$$$$$$############",
"$$$$$$$$OOOO$$$$$$$$$$$$@@@@$$$$$$$$####oooo$$$$$$$$############",
"$$$$$$$$OOOO$$$$$$$$$$$$@@@@$$$$$$$$####oooo$$$$$$$$############",
"$$$$$$$$OOOO$$$$$$$$$$$$@@@@$$$$$$$$####oooo$$$$$$$$############",
"OOOO....OOOOOOOO....oooo    ....OOOOOOOO++++        oooo....oooo",
"OOOO....OOOOOOOO....oooo    ....OOOOOOOO++++        oooo....oooo",
"OOOO....OOOOOOOO....oooo    ....OOOOOOOO++++        oooo....oooo",
"OOOO....OOOOOOOO....oooo    ....OOOOOOOO++++        oooo....oooo",
"&&&&****====----****%%%%$$$$OOOO%%%%%%%%%%%%$$$$****************",
"&&&&****====----****%%%%$$$$OOOO%%%%%%%%%%%%$$$$****************",
"&&&&****====----****%%%%$$$$OOOO%%%%%%%%%%%%$$$$****************",
"&&&&****====----****%%%%$$$$OOOO%%%%%%%%%%%%$$$$****************",
"----====%%%%$$$$----%%%%$$$$    ****%%%%****====****%%%%$$$$****",
"----====%%%%$$$$----%%%%$$$$    ****%%%%****====****%%%%$$$$****",
"----====%%%%$$$$----%%%%$$$$    ****%%%%****====****%%%%$$$$****",
"----====%%%%$$$$----%%%%$$$$    ****%%%%****====****%%%%$$$$****",
"$$$$$$$$@@@@$$$$$$$$####$$$$OOOO$$$$$$$$@@@@$$$$@@@@########$$$$",
"$$$$$$$$@@@@$$$$$$$$####$$$$OOOO$$$$$$$$@@@@$$$$@@@@########$$$$",
"$$$$$$$$@@@@$$$$$$$$####$$$$OOOO$$$$$$$$@@@@$$$$@@@@########$$$$",
"$$$$$$$$@@@@$$$$$$$$####$$$$OOOO$$$$$$$$@@@@$$$$@@@@########$$$$",
"....OOOO    ....        oooo                ........++++........",
"....OOOO    ....        oooo                ........++++........",
"....OOOO    ....        oooo                ........++++........",
"....OOOO    ....        oooo                ........++++........",
"&&&&****$$$$OOOO----%%%%$$$$****%%%%%%%%$$$$oooo%%%%********&&&&",
"&&&&****$$$$OOOO----%%%%$$$$****%%%%%%%%$$$$oooo%%%%********&&&&",
"&&&&****$$$$OOOO----%%%%$$$$****%%%%%%%%$$$$oooo%%%%********&&&&",
"&&&&****$$$$OOOO----%%%%$$$$****%%%%%%%%$$$$oooo%%%%********&&&&",
"&&&&----%%%%oooo----%%%%%%%%$$$$****----$$$$oooo****************",
"&&&&----%%%%oooo----%%%%%%%%$$$$****----$$$$oooo****************",
"&&&&----%%%%oooo----%%%%%%%%$$$$****----$$$$oooo****************",
"&&&&----%%%%oooo----%%%%%%%%$$$$****----$$$$oooo****************",
"$$$$####$$$$    ####$$$$########$$$$$$$$$$$$XXXX$$$$$$$$@@@@$$$$",
"$$$$####$$$$    ####$$$$########$$$$$$$$$$$$XXXX$$$$$$$$@@@@$$$$",
"$$$$####$$$$    ####$$$$########$$$$$$$$$$$$XXXX$$$$$$$$@@@@$$$$",
"$$$$####$$$$    ####$$$$########$$$$$$$$$$$$XXXX$$$$$$$$@@@@$$$$",
"++++....oooo....    ooooXXXX....    XXXXoooo............    oooo",
"++++....oooo....    ooooXXXX....    XXXXoooo............    oooo",
"++++....oooo....    ooooXXXX....    XXXXoooo............    oooo",
"++++....oooo....    ooooXXXX....    XXXXoooo............    oooo",
"****====****----****----&&&&$$$$--------********----$$$$$$$$oooo",
"****====****----****----&&&&$$$$--------********----$$$$$$$$oooo",
"****====****----****----&&&&$$$$--------********----$$$$$$$$oooo",
"****====****----****----&&&&$$$$--------********----$$$$$$$$oooo",
"----&&&&********&&&&$$$$********----$$$$****--------$$$$@@@@oooo",
"----&&&&********&&&&$$$$********----$$$$****--------$$$$@@@@oooo",
"----&&&&********&&&&$$$$********----$$$$****--------$$$$@@@@oooo",
"----&&&&********&&&&$$$$********----$$$$****--------$$$$@@@@oooo",
"$$$$$$$$$$$$$$$$$$$$$$$$####$$$$$$$$$$$$$$$$$$$$$$$$$$$$$$$$oooo",
"$$$$$$$$$$$$$$$$$$$$$$$$####$$$$$$$$$$$$$$$$$$$$$$$$$$$$$$$$oooo",
"$$$$$$$$$$$$$$$$$$$$$$$$####$$$$$$$$$$$$$$$$$$$$$$$$$$$$$$$$oooo",
"$$$$$$$$$$$$$$$$$$$$$$$$####$$$$$$$$$$$$$$$$$$$$$$$$$$$$$$$$oooo",
"oooooooo    ++++....    ....ooooOOOO........oooo....++++....oooo",
"oooooooo    ++++....    ....ooooOOOO........oooo....++++....oooo",
"oooooooo    ++++....    ....ooooOOOO........oooo....++++....oooo",
"oooooooo    ++++....    ....ooooOOOO........oooo....++++....oooo"
};
